<svg width="70" height="70" viewBox="0 0 70 70" fill="none" xmlns="http://www.w3.org/2000/svg">
<path d="M51.0817 68.108H35.0006C34.7498 68.108 34.5091 68.0083 34.3317 67.8309C34.1543 67.6535 34.0547 67.4129 34.0547 67.162V2.83768C34.0548 2.65794 34.106 2.48193 34.2025 2.33028C34.299 2.17863 34.4367 2.0576 34.5995 1.98137C34.7622 1.90514 34.9434 1.87687 35.1216 1.89986C35.2999 1.92285 35.4679 1.99616 35.606 2.1112L46.9574 11.5707C47.0533 11.6506 47.1325 11.7488 47.1903 11.8595C47.2481 11.9703 47.2834 12.0913 47.2941 12.2158L52.0239 67.0807C52.0351 67.2112 52.0192 67.3427 51.9769 67.4668C51.9347 67.5909 51.8672 67.7048 51.7786 67.8014C51.69 67.898 51.5823 67.9751 51.4624 68.0279C51.3424 68.0806 51.2128 68.1079 51.0817 68.108ZM35.9466 66.2161H50.0506L45.4439 12.7701L35.9466 4.85728V66.2161Z" fill="#742A2C"/>
<path d="M55.9608 42.3691C55.7242 42.3688 55.4963 42.2799 55.3221 42.1198C55.1478 41.9598 55.0399 41.7402 55.0195 41.5045L54.7831 38.7613C54.7678 38.5148 54.8495 38.2722 55.0107 38.0852C55.1719 37.8982 55.3998 37.7816 55.6458 37.7603C55.8918 37.7391 56.1364 37.8149 56.3272 37.9715C56.5181 38.1281 56.6402 38.3532 56.6674 38.5986L56.9039 41.3418C56.9254 41.5917 56.8468 41.8399 56.6854 42.0318C56.5239 42.2237 56.2929 42.3437 56.0431 42.3653C56.0157 42.368 55.9882 42.3693 55.9608 42.3691Z" fill="#742A2C"/>
<path d="M58.1773 68.1079H51.0827C50.8318 68.1079 50.5912 68.0082 50.4138 67.8308C50.2364 67.6534 50.1367 67.4128 50.1367 67.1619C50.1367 66.9111 50.2364 66.6705 50.4138 66.4931C50.5912 66.3157 50.8318 66.216 51.0827 66.216H57.1462L56.4027 57.5559C56.3814 57.306 56.4603 57.0579 56.6219 56.8662C56.7835 56.6745 57.0146 56.5547 57.2644 56.5333C57.3884 56.5211 57.5135 56.5338 57.6325 56.5707C57.7515 56.6076 57.8618 56.668 57.9571 56.7482C58.0524 56.8284 58.1307 56.9269 58.1873 57.0378C58.244 57.1487 58.2779 57.2699 58.287 57.3941L59.1194 67.0815C59.1306 67.212 59.1145 67.3434 59.0722 67.4674C59.0299 67.5913 58.9623 67.7052 58.8738 67.8016C58.7852 67.8981 58.6775 67.9752 58.5577 68.0279C58.4378 68.0806 58.3082 68.1078 58.1773 68.1079Z" fill="#742A2C"/>
<path d="M56.7747 51.8001C56.5382 51.7999 56.3105 51.711 56.1363 51.5512C55.962 51.3913 55.854 51.172 55.8334 50.9365L55.5875 48.127C55.574 48.0019 55.5856 47.8754 55.6216 47.7548C55.6576 47.6342 55.7173 47.522 55.7973 47.4248C55.8772 47.3276 55.9757 47.2473 56.087 47.1886C56.1984 47.13 56.3203 47.0941 56.4457 47.0832C56.571 47.0722 56.6973 47.0864 56.8171 47.1249C56.937 47.1633 57.0479 47.2253 57.1435 47.3072C57.239 47.3891 57.3173 47.4892 57.3737 47.6017C57.4301 47.7142 57.4634 47.8369 57.4718 47.9624L57.7178 50.771C57.7287 50.8947 57.7151 51.0195 57.6778 51.138C57.6405 51.2566 57.5802 51.3666 57.5003 51.4618C57.4204 51.557 57.3226 51.6356 57.2124 51.693C57.1022 51.7504 56.9817 51.7855 56.8579 51.7964C56.8302 51.799 56.8024 51.8003 56.7747 51.8001Z" fill="#742A2C"/>
<path d="M55.1476 33.0042C54.9102 33.0051 54.6811 32.9167 54.5059 32.7565C54.3307 32.5964 54.2221 32.3762 54.2017 32.1397L53.6492 25.6836L46.3087 19.5605C46.116 19.3996 45.9951 19.1689 45.9726 18.9189C45.95 18.669 46.0277 18.4203 46.1885 18.2276C46.3494 18.0349 46.5801 17.914 46.8301 17.8915C47.08 17.869 47.3287 17.9467 47.5214 18.1075L55.1646 24.4832C55.2606 24.5631 55.3397 24.6613 55.3975 24.7721C55.4553 24.8828 55.4906 25.0039 55.5014 25.1283L56.0869 31.9779C56.0976 32.1017 56.0837 32.2264 56.0462 32.3448C56.0086 32.4632 55.9481 32.5731 55.8681 32.6682C55.788 32.7632 55.6901 32.8416 55.5798 32.8987C55.4695 32.9559 55.349 32.9908 55.2252 33.0014L55.1476 33.0042Z" fill="#742A2C"/>
<path d="M34.9993 68.1082H18.9182C18.7868 68.1087 18.6568 68.0818 18.5364 68.0293C18.416 67.9767 18.3078 67.8997 18.2188 67.803C18.1298 67.7064 18.062 67.5923 18.0195 67.4679C17.977 67.3436 17.961 67.2118 17.9723 67.0809L22.702 12.216C22.7127 12.0916 22.748 11.9705 22.8058 11.8598C22.8636 11.7491 22.9428 11.6509 23.0387 11.5709L34.3901 2.11144C34.5281 1.99524 34.6965 1.92094 34.8754 1.89731C35.0543 1.87368 35.2362 1.9017 35.3997 1.97807C35.5631 2.05443 35.7014 2.17596 35.798 2.32832C35.8947 2.48067 35.9458 2.65749 35.9452 2.83792V67.1622C35.9452 67.4131 35.8456 67.6537 35.6682 67.8311C35.4908 68.0085 35.2502 68.1082 34.9993 68.1082ZM19.9493 66.2163H34.0533V4.85752L24.556 12.7704L19.9493 66.2163Z" fill="#742A2C"/>
<path d="M18.9206 68.108H9.93416C9.79762 68.108 9.66271 68.0784 9.53868 68.0213C9.41465 67.9642 9.30446 67.881 9.21566 67.7773C9.12686 67.6735 9.06157 67.5518 9.02427 67.4205C8.98697 67.2891 8.97854 67.1513 8.99957 67.0164L13.7293 36.7461C13.7673 36.5023 13.899 36.2831 14.0963 36.135L21.4369 30.6296C21.5362 30.5551 21.6493 30.5009 21.7697 30.47C21.89 30.4392 22.0152 30.4324 22.1382 30.4499C22.2612 30.4675 22.3795 30.5091 22.4864 30.5724C22.5933 30.6357 22.6867 30.7194 22.7612 30.8188C22.8357 30.9182 22.89 31.0313 22.9208 31.1516C22.9516 31.2719 22.9584 31.3972 22.9409 31.5202C22.9233 31.6431 22.8817 31.7614 22.8184 31.8683C22.7551 31.9752 22.6714 32.0686 22.572 32.1431L15.5389 37.4177L11.039 66.2161H18.9206C19.1715 66.2161 19.4121 66.3158 19.5895 66.4932C19.7669 66.6706 19.8666 66.9112 19.8666 67.1621C19.8666 67.4129 19.7669 67.6535 19.5895 67.8309C19.4121 68.0083 19.1715 68.108 18.9206 68.108Z" fill="#742A2C"/>
<path d="M19.2907 63.8701C19.086 63.8704 18.8867 63.8042 18.7228 63.6815C18.5589 63.5588 18.4392 63.3862 18.3818 63.1897C18.3243 62.9932 18.3321 62.7834 18.4041 62.5917C18.4761 62.4 18.6083 62.2369 18.7809 62.1268L34.493 52.0997C34.7045 51.9648 34.961 51.9193 35.2059 51.9734C35.4509 52.0275 35.6644 52.1768 35.7994 52.3882C35.9343 52.5997 35.9798 52.8562 35.9257 53.1012C35.8716 53.3462 35.7223 53.5596 35.5109 53.6946L19.7987 63.7216C19.647 63.8185 19.4707 63.87 19.2907 63.8701Z" fill="#742A2C"/>
<path d="M20.2156 53.1243C20.0109 53.1243 19.8118 53.058 19.648 52.9352C19.4843 52.8124 19.3648 52.6399 19.3074 52.4434C19.2501 52.247 19.258 52.0372 19.33 51.8456C19.402 51.6541 19.5341 51.491 19.7066 51.3809L34.4908 41.9498C34.7023 41.8149 34.9588 41.7694 35.2038 41.8235C35.4487 41.8776 35.6622 42.0269 35.7972 42.2383C35.9322 42.4498 35.9776 42.7063 35.9235 42.9513C35.8694 43.1963 35.7202 43.4097 35.5087 43.5447L20.7235 52.9729C20.5721 53.0708 20.3958 53.1233 20.2156 53.1243Z" fill="#742A2C"/>
<path d="M21.1345 42.3881C20.9297 42.3883 20.7305 42.3221 20.5666 42.1994C20.4027 42.0767 20.283 41.9041 20.2255 41.7076C20.1681 41.5111 20.1759 41.3013 20.2479 41.1096C20.3198 40.918 20.452 40.7548 20.6246 40.6447L34.4922 31.8001C34.7029 31.6796 34.952 31.6447 35.1878 31.7027C35.4235 31.7607 35.628 31.9071 35.7588 32.1117C35.8895 32.3163 35.9367 32.5633 35.8904 32.8016C35.8441 33.04 35.7079 33.2514 35.51 33.3921L21.6415 42.2367C21.4905 42.3347 21.3145 42.3872 21.1345 42.3881Z" fill="#742A2C"/>
<path d="M22.0603 31.6608C21.8555 31.661 21.6562 31.5948 21.4923 31.4721C21.3285 31.3494 21.2088 31.1769 21.1513 30.9804C21.0938 30.7839 21.1017 30.574 21.1736 30.3824C21.2456 30.1907 21.3778 30.0275 21.5504 29.9174L34.4909 21.6593C34.5957 21.5925 34.7125 21.5469 34.8348 21.5252C34.9572 21.5036 35.0826 21.5062 35.2039 21.533C35.3252 21.5598 35.44 21.6102 35.5418 21.6814C35.6436 21.7526 35.7305 21.8431 35.7973 21.9478C35.8641 22.0525 35.9097 22.1694 35.9313 22.2917C35.953 22.414 35.9504 22.5394 35.9236 22.6607C35.8968 22.782 35.8464 22.8969 35.7752 22.9987C35.704 23.1005 35.6135 23.1873 35.5088 23.2542L22.5682 31.5123C22.4165 31.6091 22.2403 31.6606 22.0603 31.6608Z" fill="#742A2C"/>
<path d="M22.986 20.9242C22.7813 20.9244 22.582 20.8582 22.4181 20.7355C22.2542 20.6129 22.1346 20.4403 22.0771 20.2438C22.0196 20.0473 22.0275 19.8375 22.0994 19.6458C22.1714 19.4541 22.3036 19.291 22.4762 19.1808L34.4897 11.5187C34.5944 11.4518 34.7113 11.4063 34.8336 11.3846C34.9559 11.363 35.0813 11.3656 35.2026 11.3924C35.3239 11.4192 35.4388 11.4696 35.5406 11.5408C35.6424 11.6119 35.7292 11.7025 35.796 11.8072C35.8629 11.9119 35.9084 12.0288 35.9301 12.1511C35.9518 12.2734 35.9491 12.3988 35.9223 12.5201C35.8955 12.6414 35.8451 12.7563 35.7739 12.8581C35.7028 12.9599 35.6122 13.0467 35.5075 13.1135L23.494 20.7757C23.3424 20.8729 23.1661 20.9244 22.986 20.9242Z" fill="#742A2C"/>
</svg>
