<svg width="70" height="70" viewBox="0 0 70 70" fill="none" xmlns="http://www.w3.org/2000/svg">
<path fill-rule="evenodd" clip-rule="evenodd" d="M12.5 38.0176V43.1088H36.25V39.7339C33.4627 40.2412 30.6356 40.498 27.8025 40.5014C22.6019 40.4949 17.4358 39.6564 12.5 38.0176Z" fill="#742A2C"/>
<path fill-rule="evenodd" clip-rule="evenodd" d="M39.6763 38.9837C39.3701 39.0637 39.0588 39.12 38.75 39.1937V43.1087H43.75V28.7612L42.3749 36.0575C42.1135 37.4709 41.0641 38.6088 39.6763 38.9837Z" fill="#742A2C"/>
<path d="M1.08099 29.4212C12.0934 37.2149 25.9544 39.8249 39.0472 36.5699C39.5013 36.4396 39.841 36.0615 39.9222 35.5962L43.4847 16.6474C43.5781 16.1836 43.3974 15.7073 43.0196 15.4225C35.1503 9.85065 25.7406 6.86873 16.0985 6.89124C12.3781 6.8832 8.67178 7.34779 5.06843 8.27374C4.61395 8.40327 4.27384 8.78173 4.19346 9.24747L0.618475 28.195C0.524203 28.6587 0.70402 29.1353 1.08099 29.4212ZM6.34714 11.2963C6.44049 10.8022 6.82068 10.4123 7.31213 10.3063C8.95426 9.95181 10.6165 9.69793 12.2896 9.54624C12.9772 9.48343 13.5855 9.98993 13.6483 10.6775C13.7111 11.3651 13.2046 11.9734 12.5171 12.0362C11.2159 12.1613 9.91833 12.3387 8.64204 12.5837L8.00958 15.9374C7.93541 16.3843 7.62526 16.7562 7.1988 16.9092C6.77245 17.0623 6.29661 16.9727 5.955 16.675C5.6134 16.3772 5.45976 15.9182 5.55323 15.4748L6.34714 11.2963Z" fill="#742A2C"/>
<path fill-rule="evenodd" clip-rule="evenodd" d="M53.75 23.1089V29.3589H66.6451L63.235 23.1089H53.75Z" fill="#742A2C"/>
<path fill-rule="evenodd" clip-rule="evenodd" d="M2.07539 38.1089H10.0004V37.1089C7.17194 35.997 4.45688 34.6157 1.89293 32.9839L0.875346 36.5051C0.763736 36.8834 0.837109 37.292 1.07342 37.6078C1.30973 37.9236 1.68108 38.1093 2.07539 38.1089Z" fill="#742A2C"/>
<path d="M12.5 58.1089C13.1903 58.1089 13.75 57.5492 13.75 56.8589C13.75 56.1685 13.1903 55.6089 12.5 55.6089C11.8096 55.6089 11.25 56.1685 11.25 56.8589C11.25 57.5492 11.8096 58.1089 12.5 58.1089Z" fill="#742A2C"/>
<path fill-rule="evenodd" clip-rule="evenodd" d="M70 56.8589V54.3589H67.125C67.3711 55.1696 67.4975 56.0117 67.5 56.8589H70Z" fill="#742A2C"/>
<path d="M32.5 58.1089C33.1903 58.1089 33.75 57.5492 33.75 56.8589C33.75 56.1685 33.1903 55.6089 32.5 55.6089C31.8096 55.6089 31.25 56.1685 31.25 56.8589C31.25 57.5492 31.8096 58.1089 32.5 58.1089Z" fill="#742A2C"/>
<path d="M12.5 63.1086C15.9517 63.1086 18.7499 60.3104 18.7499 56.8586C18.7499 53.4068 15.9517 50.6086 12.5 50.6086C9.04819 50.6086 6.25 53.4068 6.25 56.8586C6.25413 60.3087 9.04991 63.1044 12.5 63.1086ZM12.5 53.1086C14.5711 53.1086 16.25 54.7876 16.25 56.8586C16.25 58.9297 14.571 60.6086 12.5 60.6086C10.429 60.6086 8.74999 58.9296 8.74999 56.8586C8.74999 54.7876 10.429 53.1086 12.5 53.1086Z" fill="#742A2C"/>
<path fill-rule="evenodd" clip-rule="evenodd" d="M12.4985 48.1089C15.358 48.1107 18.0359 49.5112 19.6684 51.8589H25.3284C26.96 49.51 29.6385 48.1092 32.4984 48.1092C35.3583 48.1092 38.0369 49.51 39.6684 51.8589H43.7483V45.6089H6.44959C6.00165 45.6075 5.58724 45.846 5.36333 46.2339L2.15234 51.8589H5.32854C6.96113 49.5112 9.63899 48.1107 12.4985 48.1089Z" fill="#742A2C"/>
<path fill-rule="evenodd" clip-rule="evenodd" d="M21.25 56.8586H23.75C23.7525 56.0114 23.8788 55.1692 24.125 54.3586H20.875C21.1211 55.1693 21.2475 56.0116 21.25 56.8586Z" fill="#742A2C"/>
<path d="M32.5 50.6086C29.0482 50.6086 26.25 53.4068 26.25 56.8586C26.25 60.3104 29.0482 63.1086 32.5 63.1086C35.9517 63.1086 38.7499 60.3104 38.7499 56.8586C38.7459 53.4086 35.95 50.6128 32.5 50.6086ZM32.5 60.6086C30.4289 60.6086 28.75 58.9296 28.75 56.8586C28.75 54.7875 30.429 53.1086 32.5 53.1086C34.571 53.1086 36.25 54.7876 36.25 56.8586C36.25 58.9297 34.5711 60.6086 32.5 60.6086Z" fill="#742A2C"/>
<path d="M67.5 48.1087H65C64.3097 48.1087 63.75 47.5491 63.75 46.8588C63.75 46.1684 64.3097 45.6088 65 45.6088H67.5V43.1088H62.5C61.1194 43.1088 60 41.9894 60 40.6088V38.1088C60 36.7281 61.1194 35.6088 62.5 35.6088H67.5V31.8588H53.75C52.3693 31.8588 51.25 30.7395 51.25 29.3588V23.1089C51.25 21.7282 52.3693 20.6089 53.75 20.6089H61.8749L60.8662 18.7602C60.6466 18.3578 60.2245 18.108 59.7662 18.1089H47.5C46.8097 18.1089 46.25 18.6686 46.25 19.3589V51.8587H51.58C53.2115 49.5098 55.8901 48.1091 58.7499 48.1091C61.6098 48.1091 64.2884 49.5098 65.9199 51.8587H67.4999L67.5 48.1087ZM55 38.1088H52.5C51.8096 38.1088 51.25 37.5491 51.25 36.8588C51.25 36.1685 51.8096 35.6088 52.5 35.6088H55C55.6903 35.6088 56.25 36.1685 56.25 36.8588C56.25 37.5491 55.6903 38.1088 55 38.1088Z" fill="#742A2C"/>
<path d="M64.9999 56.8586C64.9999 53.4068 62.2017 50.6086 58.75 50.6086C55.2982 50.6086 52.5 53.4068 52.5 56.8586C52.5 60.3104 55.2982 63.1086 58.75 63.1086C62.1999 63.1044 64.9958 60.3087 64.9999 56.8586ZM58.7499 60.6086C56.6787 60.6086 54.9999 58.9296 54.9999 56.8586C54.9999 54.7875 56.6789 53.1086 58.7499 53.1086C60.821 53.1086 62.4998 54.7876 62.4998 56.8586C62.4998 58.9297 60.821 60.6086 58.7499 60.6086Z" fill="#742A2C"/>
<path fill-rule="evenodd" clip-rule="evenodd" d="M62.5 38.1089H67.5V40.6089H62.5V38.1089Z" fill="#742A2C"/>
<path fill-rule="evenodd" clip-rule="evenodd" d="M4.125 54.3586H0V56.8586H3.74998C3.75251 56.0116 3.87893 55.1693 4.125 54.3586Z" fill="#742A2C"/>
<path fill-rule="evenodd" clip-rule="evenodd" d="M41.2492 56.8586H49.9992C50.0017 56.0114 50.128 55.1692 50.3742 54.3586H40.8867C41.1285 55.1699 41.2507 56.0121 41.2492 56.8586Z" fill="#742A2C"/>
<path d="M58.75 58.1086C59.4403 58.1086 60 57.549 60 56.8586C60 56.1683 59.4403 55.6086 58.75 55.6086C58.0596 55.6086 57.5 56.1683 57.5 56.8586C57.5 57.549 58.0596 58.1086 58.75 58.1086Z" fill="#742A2C"/>
</svg>
