<svg width="74" height="74" viewBox="0 0 74 74" fill="none" xmlns="http://www.w3.org/2000/svg">
<path d="M31.9208 13.3449L42.1081 18.2535C42.1081 18.2535 42.1328 18.2535 42.1328 18.2782C42.2068 18.3029 42.3054 18.3275 42.3794 18.3275C42.4288 18.3275 42.4781 18.3275 42.5274 18.3029C42.5768 18.3029 42.6014 18.2782 42.6508 18.2535C42.6754 18.2289 42.7248 18.2289 42.7494 18.2042L47.5841 14.9482C47.7568 14.8249 47.8554 14.6522 47.8554 14.4302V8.23887C47.8554 8.09087 47.8061 7.94287 47.7074 7.81953C47.6828 7.79487 47.6581 7.7702 47.6334 7.74553C47.5841 7.72087 47.5348 7.67153 47.4854 7.64687L37.6928 3.20687C37.5201 3.13287 37.3228 3.13287 37.1501 3.20687L31.8961 5.89553C31.8714 5.9202 31.8221 5.94487 31.7974 5.94487C31.7481 5.96953 31.7234 6.01887 31.6741 6.0682C31.6001 6.16687 31.5508 6.26553 31.5508 6.38887V6.46287V12.7775C31.5754 13.0242 31.6988 13.2215 31.9208 13.3449ZM46.5728 14.1095L42.9961 16.5269V11.5935L46.5728 9.34887V14.1095ZM37.4461 4.4402L45.9068 8.31287L42.3548 10.5329L33.6228 6.41353L37.4461 4.4402ZM41.7628 11.6429V16.6995L32.8088 12.3829V7.37553L41.7628 11.6429Z" fill="#742A2C"/>
<path d="M30.6604 60.7785L26.2697 58.3119L22.397 56.2645C22.1997 56.1659 21.9777 56.1659 21.7804 56.2892C21.583 56.4125 21.4844 56.6099 21.4844 56.8072V59.1259C21.4844 59.3479 21.6077 59.5699 21.805 59.6685L25.6777 61.7405L30.0437 64.2072C30.1424 64.2565 30.241 64.2812 30.3397 64.2812C30.4384 64.2812 30.5617 64.2565 30.6604 64.2072C30.8577 64.1085 30.9564 63.8865 30.9564 63.6645V61.3459C30.981 61.0992 30.8577 60.9019 30.6604 60.7785ZM25.357 60.1619L22.7177 58.7559V57.8432L25.357 59.2492V60.1619ZM29.7477 62.6039L26.5904 60.8279V59.9152L29.7477 61.6912V62.6039Z" fill="#742A2C"/>
<path d="M30.6604 53.6994L26.2697 51.2328L22.397 49.1854C22.1997 49.0868 21.9777 49.0868 21.7804 49.2101C21.583 49.3334 21.4844 49.5308 21.4844 49.7281V52.0468C21.4844 52.2688 21.6077 52.4908 21.805 52.5894L25.6777 54.6614L30.0437 57.1281C30.1424 57.1774 30.241 57.2021 30.3397 57.2021C30.4384 57.2021 30.5617 57.1774 30.6604 57.1281C30.8577 57.0294 30.9564 56.8074 30.9564 56.5854V54.2668C30.981 53.9954 30.8577 53.7981 30.6604 53.6994ZM25.357 53.0581L22.7177 51.6521V50.7394L25.357 52.1454V53.0581ZM29.7477 55.5001L26.5904 53.7241V52.8114L29.7477 54.5874V55.5001Z" fill="#742A2C"/>
<path d="M30.6614 32.3383L26.2461 29.9456C26.2461 29.9456 26.2461 29.9456 26.2214 29.9456L22.2994 27.9476C22.1021 27.849 21.8801 27.849 21.6827 27.9723C21.5101 28.0956 21.3867 28.293 21.3867 28.515L21.4361 30.8336C21.4361 31.0556 21.5594 31.2776 21.7814 31.3763L25.6787 33.399L30.0941 35.767C30.1927 35.8163 30.2914 35.841 30.3901 35.841C30.5134 35.841 30.6121 35.8163 30.7107 35.7423C30.9081 35.619 31.0067 35.4216 31.0067 35.1996L30.9574 32.881C30.9821 32.6343 30.8587 32.437 30.6614 32.3383ZM22.6941 30.4143L22.6694 29.5016L25.3334 30.8583L25.3581 31.7956L22.6941 30.4143ZM26.5914 32.437L26.5667 31.5243L29.7487 33.2263L29.7734 34.139L26.5914 32.437Z" fill="#742A2C"/>
<path d="M30.6604 39.4914L26.2697 37.0248L22.397 34.9774C22.1997 34.8788 21.9777 34.8788 21.7804 35.0021C21.583 35.1254 21.4844 35.3228 21.4844 35.5201V37.8388C21.4844 38.0608 21.6077 38.2828 21.805 38.3814L25.653 40.4534L30.0437 42.9201C30.1424 42.9694 30.241 42.9941 30.3397 42.9941C30.4384 42.9941 30.5617 42.9694 30.6604 42.9201C30.8577 42.8214 30.9564 42.5994 30.9564 42.3774V40.0588C30.981 39.8121 30.8577 39.6148 30.6604 39.4914ZM25.357 38.8748L22.7177 37.4688V36.5561L25.357 37.9621V38.8748ZM29.7477 41.3168L26.5904 39.5408V38.6281L29.7477 40.4041V41.3168Z" fill="#742A2C"/>
<path d="M30.6858 25.0615L26.2952 22.9895L22.2005 20.9915C22.0032 20.8929 21.7812 20.9175 21.6085 21.0162C21.4358 21.1395 21.3125 21.3369 21.3125 21.5342V23.8035C21.3125 24.0502 21.4605 24.2722 21.6578 24.3709L25.7278 26.2702L30.1432 28.4409C30.2172 28.4902 30.3158 28.5149 30.4145 28.5149C30.5378 28.5149 30.6365 28.4902 30.7352 28.4162C30.9078 28.2929 31.0312 28.0955 31.0312 27.8982V25.6289C31.0312 25.3822 30.8832 25.1602 30.6858 25.0615ZM25.4072 24.7655L22.5458 23.4335V22.5455L25.4072 23.9269V24.7655ZM26.6405 25.3575V24.5189L29.7978 26.0235V26.9115L26.6405 25.3575Z" fill="#742A2C"/>
<path d="M30.6616 46.5952L26.2709 44.1285C26.2709 44.1285 26.2709 44.1285 26.2463 44.1285L22.3736 42.0565C22.1763 41.9579 21.9543 41.9579 21.7569 42.0812C21.5596 42.2045 21.4609 42.4019 21.4609 42.5992V44.9179C21.4609 45.1399 21.5843 45.3619 21.7816 45.4605L25.6543 47.5325L30.0203 49.9992C30.1189 50.0485 30.2176 50.0732 30.3163 50.0732C30.4149 50.0732 30.5383 50.0485 30.6369 49.9992C30.8343 49.9005 30.9329 49.6785 30.9329 49.4565V47.1379C30.9823 46.9159 30.8589 46.6939 30.6616 46.5952ZM25.3583 45.9785L22.7189 44.5725V43.6599L25.3583 45.0659V45.9785ZM29.7489 48.3959L26.5916 46.6199V45.7072L29.7489 47.4832V48.3959Z" fill="#742A2C"/>
<path d="M17.5156 33.325L15.7149 32.511C15.5176 32.437 15.2956 32.437 15.1229 32.5603C14.9502 32.6836 14.8516 32.881 14.8516 33.0783V35.397C14.8516 35.6436 14.9996 35.8656 15.2216 35.9643L17.0222 36.7783C17.0962 36.803 17.1949 36.8276 17.2689 36.8276C17.3922 36.8276 17.4909 36.8029 17.6142 36.7289C17.7869 36.6056 17.8856 36.4083 17.8856 36.211V33.8923C17.8856 33.6456 17.7376 33.4236 17.5156 33.325ZM16.6522 35.2736L16.0849 35.027V34.0403L16.6522 34.287V35.2736Z" fill="#742A2C"/>
<path d="M17.5156 20.9172L15.7149 20.1032C15.5176 20.0292 15.2956 20.0292 15.1229 20.1526C14.9502 20.2759 14.8516 20.4732 14.8516 20.6706V22.9892C14.8516 23.2359 14.9996 23.4579 15.2216 23.5566L17.0222 24.3706C17.0962 24.3952 17.1949 24.4199 17.2689 24.4199C17.3922 24.4199 17.4909 24.3952 17.6142 24.3212C17.7869 24.1979 17.8856 24.0006 17.8856 23.8032V21.4846C17.8856 21.2379 17.7376 21.0159 17.5156 20.9172ZM16.6522 22.8659L16.0849 22.6192V21.6572L16.6522 21.9039V22.8659Z" fill="#742A2C"/>
<path d="M17.5156 27.1335L15.7149 26.3195C15.5176 26.2455 15.2956 26.2455 15.1229 26.3689C14.9502 26.4922 14.8516 26.6895 14.8516 26.8869V29.2055C14.8516 29.4522 14.9996 29.6742 15.2216 29.7729L17.0222 30.5869C17.0962 30.6115 17.1949 30.6362 17.2689 30.6362C17.3922 30.6362 17.4909 30.6115 17.6142 30.5375C17.7869 30.4142 17.8856 30.2169 17.8856 30.0195V27.7009C17.8856 27.4542 17.7376 27.2322 17.5156 27.1335ZM16.6522 29.0575L16.0849 28.8109V27.8489L16.6522 28.0955V29.0575Z" fill="#742A2C"/>
<path d="M17.5156 39.5408L15.7149 38.7268C15.5176 38.6528 15.2956 38.6528 15.1229 38.7761C14.9502 38.8994 14.8516 39.0968 14.8516 39.2941V41.6128C14.8516 41.8594 14.9996 42.0814 15.2216 42.1801L17.0222 42.9941C17.0962 43.0188 17.1949 43.0434 17.2689 43.0434C17.3922 43.0434 17.4909 43.0188 17.6142 42.9448C17.7869 42.8214 17.8856 42.6241 17.8856 42.4268V40.1081C17.8856 39.8614 17.7376 39.6394 17.5156 39.5408ZM16.6522 41.4648L16.0849 41.2181V40.2561L16.6522 40.5028V41.4648Z" fill="#742A2C"/>
<path d="M17.5156 45.7322L15.7149 44.9182C15.5176 44.8442 15.2956 44.8442 15.1229 44.9675C14.9502 45.0908 14.8516 45.2882 14.8516 45.4855V47.8042C14.8516 48.0508 14.9996 48.2728 15.2216 48.3715L17.0222 49.1855C17.0962 49.2102 17.1949 49.2348 17.2689 49.2348C17.3922 49.2348 17.4909 49.2102 17.6142 49.1362C17.7869 49.0128 17.8856 48.8155 17.8856 48.6182V46.2995C17.8856 46.0528 17.7376 45.8308 17.5156 45.7322ZM16.6522 47.6562L16.0849 47.4095V46.4475L16.6522 46.6942V47.6562Z" fill="#742A2C"/>
<path d="M17.5156 14.7258L15.7149 13.9118C15.5176 13.8378 15.2956 13.8378 15.1229 13.9612C14.9502 14.0845 14.8516 14.2818 14.8516 14.4792V16.7978C14.8516 17.0445 14.9996 17.2665 15.2216 17.3652L17.0222 18.1792C17.0962 18.2038 17.1949 18.2285 17.2689 18.2285C17.3922 18.2285 17.4909 18.2038 17.6142 18.1298C17.7869 18.0065 17.8856 17.8092 17.8856 17.6118V15.2932C17.8856 15.0465 17.7376 14.8245 17.5156 14.7258ZM16.6522 16.6498L16.0849 16.4032V15.4412L16.6522 15.6878V16.6498Z" fill="#742A2C"/>
<path d="M58.2882 36.2846C58.0909 36.1859 57.8442 36.1859 57.6469 36.3092L50.3456 41.0946C50.1729 41.2179 50.0742 41.3906 50.0742 41.6126V43.9312C50.0742 44.1532 50.1976 44.3752 50.3949 44.4739C50.4936 44.5232 50.5922 44.5479 50.6909 44.5479C50.8142 44.5479 50.9376 44.5232 51.0362 44.4492L58.3376 39.6392C58.5102 39.5159 58.6089 39.3432 58.6089 39.1212V36.8272C58.6089 36.5806 58.4856 36.3832 58.2882 36.2846ZM57.3756 38.8006L51.3076 42.7966V41.9332L57.3756 37.9619V38.8006Z" fill="#742A2C"/>
<path d="M61.0013 15.5401C61.0013 15.5154 61.0013 15.5154 61.0013 15.5401C61.0013 15.5154 61.0013 15.5154 61.0013 15.4907C61.0013 15.4414 60.9767 15.4167 60.9767 15.3674V15.3427C60.952 15.2934 60.9273 15.2441 60.9027 15.2194C60.9027 15.2194 60.9027 15.1947 60.878 15.1947C60.8533 15.1701 60.8287 15.1207 60.804 15.0961L60.7793 15.0714C60.73 15.0467 60.7053 15.0221 60.656 14.9974L58.88 14.2327V10.7054V10.6807C58.88 10.6807 58.88 10.6807 58.88 10.6561V10.6314C58.88 10.5821 58.8553 10.5574 58.8553 10.5081V10.4834C58.8307 10.4341 58.806 10.3847 58.7813 10.3601C58.7813 10.3601 58.7813 10.3354 58.7567 10.3354C58.732 10.3107 58.7073 10.2614 58.6827 10.2367L58.658 10.2121C58.6087 10.1874 58.584 10.1627 58.5347 10.1381L37.7653 1.28273C37.5927 1.20873 37.3953 1.20873 37.2227 1.3074L32.832 3.70006L27.874 1.48006C27.726 1.40606 27.5533 1.40606 27.4053 1.48006L13.37 7.10406C13.3207 7.12873 13.2713 7.1534 13.222 7.17806L13.1973 7.20273C13.148 7.2274 13.1233 7.27673 13.0987 7.30139C13.074 7.35073 13.0493 7.40006 13.0247 7.4494V7.47406C13 7.52339 13 7.57273 13 7.62206V7.64673V51.4301C13 51.6521 13.1233 51.8494 13.296 51.9481L19.068 55.4261V62.6534C19.068 62.8754 19.1913 63.0974 19.4133 63.1961L23.6067 65.3421L27.4053 67.2907L33.3747 70.3494C33.3993 70.3741 33.424 70.3741 33.4487 70.3741C33.4733 70.3741 33.4733 70.3987 33.498 70.3987C33.5473 70.3987 33.5967 70.4234 33.646 70.4234C33.6953 70.4234 33.7447 70.4234 33.794 70.3987C33.8187 70.3987 33.8187 70.3741 33.8433 70.3741C33.868 70.3741 33.8927 70.3494 33.942 70.3494L37.9133 68.1787L47.5827 72.7174C47.6073 72.7174 47.632 72.7421 47.6567 72.7421C47.6813 72.7421 47.6813 72.7421 47.706 72.7667C47.7553 72.7667 47.8047 72.7914 47.854 72.7914C47.9033 72.7914 47.9773 72.7914 48.0267 72.7667C48.0513 72.7667 48.0513 72.7421 48.076 72.7421C48.1007 72.7174 48.15 72.7174 48.1747 72.6927L60.73 63.9854C60.9027 63.8621 61.0013 63.6894 61.0013 63.4674V15.5647C61.0013 15.5401 61.0013 15.5401 61.0013 15.5401ZM55.8213 12.9501L57.622 11.8401V13.7147L55.8213 12.9501ZM27.652 2.73806L32.6347 4.95806C32.8073 5.03206 33.0047 5.03206 33.1773 4.9334L37.568 2.51606L56.9067 10.8041L54.1687 12.5061C53.9713 12.6294 53.8727 12.8514 53.8727 13.0734C53.8973 13.2954 54.0453 13.4927 54.2427 13.5914L57.992 15.1947L59.0527 15.6387L47.78 22.5947L37.9873 18.0561C37.9133 18.0067 37.8147 18.0067 37.716 18.0067C37.6173 18.0067 37.5187 18.0314 37.42 18.0807L33.3993 20.2761L21.1647 14.8987L24.8647 13.1474C25.0867 13.0487 25.21 12.8267 25.21 12.5801C25.21 12.3334 25.062 12.1114 24.84 12.0127L15.1953 7.69606L27.652 2.73806ZM38.4807 19.6841L47.2127 23.7294V71.1881L38.4807 67.0934V19.6841ZM14.2333 51.1094V8.63339L23.1133 12.6047L19.4133 14.3561C19.4133 14.3561 19.4133 14.3561 19.3887 14.3561C19.3393 14.3807 19.3147 14.4054 19.29 14.4301L19.2653 14.4547C19.216 14.4794 19.1913 14.5287 19.1667 14.5781C19.1667 14.5781 19.1667 14.6027 19.142 14.6027C19.1173 14.6521 19.0927 14.6767 19.0927 14.7261V14.7507C19.068 14.8001 19.068 14.8494 19.068 14.8987V54.0201L14.2333 51.1094ZM26.3693 64.4541L26.9613 64.7747L26.986 65.7367L26.394 65.4407L26.3693 64.4541ZM24.4947 64.4541V63.3934L25.136 63.7634L25.1607 64.7994L24.4947 64.4541ZM28.2687 66.3781L28.1947 64.3554C28.1947 64.1334 28.0713 63.9361 27.874 63.8374L26.024 62.8507L24.174 61.7654C23.9767 61.6421 23.7547 61.6421 23.5573 61.7654C23.36 61.8641 23.2367 62.0861 23.2367 62.3081V63.8374L20.2767 62.3327V15.8607L32.832 21.3861V21.6081C32.832 21.8547 32.832 22.0767 32.8567 22.2494H32.832L32.98 68.7954L28.2687 66.3781ZM34.238 68.7707L34.09 22.2494C34.09 22.2494 34.09 22.2494 34.09 22.2247C34.09 22.1754 34.09 21.8794 34.09 21.6081C34.09 21.5094 34.09 21.4354 34.09 21.3367L37.272 19.6101V67.1181L34.238 68.7707ZM48.446 70.9661V23.6801L59.768 16.6747V63.1221L48.446 70.9661Z" fill="#742A2C"/>
<path d="M58.2882 22.3729C58.0909 22.2743 57.8442 22.2743 57.6469 22.3976L50.3456 27.1829C50.1729 27.3063 50.0742 27.4789 50.0742 27.7009V30.0196C50.0742 30.2416 50.1976 30.4636 50.3949 30.5623C50.4936 30.6116 50.5922 30.6363 50.6909 30.6363C50.8142 30.6363 50.9376 30.6116 51.0362 30.5376L58.3376 25.7276C58.5102 25.6043 58.6089 25.4316 58.6089 25.2096V22.9156C58.6089 22.6936 58.4856 22.4716 58.2882 22.3729ZM57.3756 24.8889L51.3076 28.8849V28.0463L57.3756 24.0749V24.8889Z" fill="#742A2C"/>
<path d="M58.2882 29.3285C58.0909 29.2298 57.8442 29.2298 57.6469 29.3532L50.3456 34.1385C50.1729 34.2618 50.0742 34.4345 50.0742 34.6565V36.9752C50.0742 37.1972 50.1976 37.4192 50.3949 37.5178C50.4936 37.5672 50.5922 37.5918 50.6909 37.5918C50.8142 37.5918 50.9376 37.5672 51.0362 37.4932L58.3376 32.6832C58.5102 32.5598 58.6089 32.3872 58.6089 32.1652V29.8712C58.6089 29.6492 58.4856 29.4272 58.2882 29.3285ZM57.3756 31.8445L51.3076 35.8405V35.0018L57.3756 31.0305V31.8445Z" fill="#742A2C"/>
<path d="M58.2882 50.1722C58.0909 50.0736 57.8442 50.0736 57.6469 50.1969L50.3456 54.9822C50.1729 55.1056 50.0742 55.2782 50.0742 55.5002V57.8189C50.0742 58.0409 50.1976 58.2629 50.3949 58.3616C50.4936 58.4109 50.5922 58.4356 50.6909 58.4356C50.8142 58.4356 50.9376 58.4109 51.0362 58.3369L58.3376 53.5269C58.5102 53.4036 58.6089 53.2309 58.6089 53.0089V50.7149C58.6089 50.4929 58.4856 50.2956 58.2882 50.1722ZM57.3756 52.6883L51.3076 56.6843V55.8456L57.3756 51.8743V52.6883Z" fill="#742A2C"/>
<path d="M58.2882 57.1283C58.0909 57.0296 57.8442 57.0296 57.6469 57.153L50.3456 61.9383C50.1729 62.0616 50.0742 62.2343 50.0742 62.4563V64.775C50.0742 64.997 50.1976 65.219 50.3949 65.3176C50.4936 65.367 50.5922 65.3916 50.6909 65.3916C50.8142 65.3916 50.9376 65.367 51.0362 65.293L58.3376 60.483C58.5102 60.3596 58.6089 60.187 58.6089 59.965V57.671C58.6089 57.449 58.4856 57.2516 58.2882 57.1283ZM57.3756 59.6443L51.3322 63.6403V62.8016L57.4002 58.8303V59.6443H57.3756Z" fill="#742A2C"/>
<path d="M58.2882 43.2406C58.0909 43.1419 57.8442 43.1419 57.6469 43.2653L50.3456 48.0506C50.1729 48.1739 50.0742 48.3466 50.0742 48.5686V50.8873C50.0742 51.1093 50.1976 51.3313 50.3949 51.4299C50.4936 51.4793 50.5922 51.5039 50.6909 51.5039C50.8142 51.5039 50.9376 51.4793 51.0362 51.4053L58.3376 46.5953C58.5102 46.4719 58.6089 46.2993 58.6089 46.0773V43.7833C58.6089 43.5366 58.4856 43.3393 58.2882 43.2406ZM57.3756 45.7566L51.3076 49.7526V48.9139L57.3756 44.9426V45.7566Z" fill="#742A2C"/>
<path d="M44.8436 61.5682L43.1662 60.8282C43.1169 60.8035 43.0922 60.7788 43.0429 60.7542L41.2422 59.9402C41.0449 59.8662 40.8229 59.8661 40.6502 59.9895C40.4776 60.1128 40.3789 60.3102 40.3789 60.5075V62.8261C40.3789 63.0728 40.5269 63.2948 40.7489 63.3935L42.5002 64.1828C42.5249 64.1828 42.5496 64.2075 42.5496 64.2075L44.3502 65.0215C44.4242 65.0462 44.5229 65.0708 44.5969 65.0708C44.7202 65.0708 44.8189 65.0461 44.9422 64.9721C45.1149 64.8488 45.2136 64.6515 45.2136 64.4541V62.1355C45.2136 61.8888 45.0656 61.6668 44.8436 61.5682ZM42.1796 62.6782L41.6122 62.4315V61.4695L42.1796 61.7161V62.6782ZM43.9802 63.5168L43.4129 63.2702V62.3082L43.9802 62.5548V63.5168Z" fill="#742A2C"/>
<path d="M40.7489 36.038L42.5002 36.8273C42.5249 36.8273 42.5496 36.852 42.5496 36.852L44.3502 37.666C44.4242 37.6907 44.5229 37.7153 44.5969 37.7153C44.7202 37.7153 44.8189 37.6907 44.9422 37.6167C45.1149 37.4933 45.2136 37.296 45.2136 37.0987V34.78C45.2136 34.5333 45.0656 34.3113 44.8436 34.2127L43.1662 33.4727C43.1169 33.448 43.0922 33.4233 43.0429 33.3987L41.2422 32.5847C41.0449 32.5107 40.8229 32.5107 40.6502 32.634C40.4776 32.7573 40.3789 32.9547 40.3789 33.152V35.4707C40.3789 35.7173 40.5269 35.9393 40.7489 36.038ZM43.4129 34.928L43.9802 35.1747V36.1367L43.4129 35.89V34.928ZM41.6122 34.114L42.1796 34.3607V35.3227L41.6122 35.076V34.114Z" fill="#742A2C"/>
<path d="M44.9686 41.2674L43.2912 40.5274C43.2419 40.5027 43.2172 40.478 43.1679 40.4534L41.3672 39.6394C41.1699 39.5654 40.9479 39.5654 40.7752 39.6887C40.6026 39.812 40.5039 40.0094 40.5039 40.2067V42.5254C40.5039 42.772 40.6519 42.994 40.8739 43.0927L42.6252 43.882C42.6499 43.882 42.6746 43.9067 42.6746 43.9067L44.4752 44.7207C44.5492 44.7454 44.6479 44.77 44.7219 44.77C44.8452 44.77 44.9439 44.7454 45.0672 44.6714C45.2399 44.548 45.3386 44.3507 45.3386 44.1534V41.8347C45.3386 41.588 45.1906 41.366 44.9686 41.2674ZM42.3046 42.3774L41.7372 42.1307V41.1687L42.3046 41.4154V42.3774ZM44.1052 43.1914L43.5379 42.9447V41.9827L44.1052 42.2294V43.1914Z" fill="#742A2C"/>
<path d="M44.9686 27.2815L43.2912 26.5415C43.2419 26.5169 43.2172 26.4922 43.1679 26.4675L41.3672 25.6535C41.1699 25.5795 40.9479 25.5795 40.7752 25.7029C40.6026 25.8262 40.5039 26.0235 40.5039 26.2209V28.5395C40.5039 28.7862 40.6519 29.0082 40.8739 29.1069L42.6252 29.8962C42.6499 29.8962 42.6746 29.9209 42.6746 29.9209L44.4752 30.7349C44.5492 30.7595 44.6479 30.7842 44.7219 30.7842C44.8452 30.7842 44.9439 30.7595 45.0672 30.6855C45.2399 30.5622 45.3386 30.3649 45.3386 30.1675V27.8489C45.3386 27.6022 45.1906 27.3802 44.9686 27.2815ZM42.3046 28.3915L41.7372 28.1449V27.1829L42.3046 27.4295V28.3915ZM44.1052 29.2055L43.5379 28.9589V27.9969L44.1052 28.2435V29.2055Z" fill="#742A2C"/>
<path d="M40.7489 50.0239L42.5002 50.8132C42.5249 50.8132 42.5496 50.8379 42.5496 50.8379L44.3502 51.6519C44.4242 51.6765 44.5229 51.7012 44.5969 51.7012C44.7202 51.7012 44.8189 51.6765 44.9422 51.6025C45.1149 51.4792 45.2136 51.2819 45.2136 51.0845V48.7659C45.2136 48.5192 45.0656 48.2972 44.8436 48.1985L43.1662 47.4585C43.1169 47.4339 43.0922 47.4092 43.0429 47.3845L41.2422 46.5705C41.0449 46.4965 40.8229 46.4965 40.6502 46.6199C40.4776 46.7432 40.3789 46.9405 40.3789 47.1379V49.4565C40.3789 49.7032 40.5269 49.9252 40.7489 50.0239ZM43.4129 48.9139L43.9802 49.1605V50.1225L43.4129 49.8759V48.9139ZM41.6122 48.0999L42.1796 48.3465V49.3085L41.6122 49.0619V48.0999Z" fill="#742A2C"/>
<path d="M44.9686 54.6365L43.2912 53.8965C43.2419 53.8718 43.2172 53.8472 43.1679 53.8225L41.3672 53.0085C41.1699 52.9345 40.9479 52.9345 40.7752 53.0578C40.6026 53.1812 40.5039 53.3785 40.5039 53.5758V55.8945C40.5039 56.1412 40.6519 56.3632 40.8739 56.4618L42.6252 57.2512C42.6499 57.2512 42.6746 57.2758 42.6746 57.2758L44.4752 58.0898C44.5492 58.1145 44.6479 58.1392 44.7219 58.1392C44.8452 58.1392 44.9439 58.1145 45.0672 58.0405C45.2399 57.9172 45.3386 57.7198 45.3386 57.5225V55.2038C45.3386 54.9572 45.1906 54.7352 44.9686 54.6365ZM42.3046 55.7465L41.7372 55.4998V54.5378L42.3046 54.7845V55.7465ZM44.1052 56.5852L43.5379 56.3385V55.3765L44.1052 55.6232V56.5852Z" fill="#742A2C"/>
</svg>
