<svg width="64" height="64" viewBox="0 0 64 64" fill="none" xmlns="http://www.w3.org/2000/svg">
<path d="M39.7461 22.8497C37.9807 19.6476 39.5509 17.1132 43.5053 14.7134C44.6276 14.0376 43.6432 12.3407 42.4956 12.9869C37.5213 15.9293 35.6923 19.6366 38.0107 23.8438C39.4937 26.458 44.0157 33.3858 53.9502 41.2344C54.3801 41.5757 55.011 41.5059 55.355 41.0704C55.6973 40.6368 55.6236 40.0079 55.1905 39.6661C45.2613 31.8208 40.8619 24.8165 39.7461 22.8497Z" fill="#742A2C"/>
<path d="M55.7731 8.43418C55.5812 8.46689 51.026 9.25303 46.4494 11.0812C45.4356 11.4699 45.7484 13.0308 46.821 13.0103C50.9039 11.504 56.2069 10.294 56.1086 10.406C57.3985 10.1655 57.0727 8.23229 55.7731 8.43418Z" fill="#742A2C"/>
<path d="M44.7159 8.6928C42.4703 9.38274 40.3604 10.1279 38.4449 10.9081C37.2327 11.4267 37.98 13.2378 39.1989 12.7607C41.0602 12.0024 43.1139 11.2773 45.3028 10.6049C45.8311 10.4428 46.1275 9.88323 45.9654 9.3554C45.8033 8.82757 45.2428 8.53313 44.7159 8.6928Z" fill="#742A2C"/>
<path d="M32.4189 13.8491C30.1764 15.1916 28.6237 16.4077 27.0727 18.0962C26.6987 18.5024 26.7251 19.1352 27.1318 19.5088C28.0757 20.3326 28.8336 19.0831 29.474 18.4999C30.5146 17.499 31.8491 16.5127 33.4394 15.5688C33.9145 15.2871 34.0708 14.6733 33.789 14.1987C33.5068 13.7236 32.894 13.5664 32.4189 13.8491Z" fill="#742A2C"/>
<path d="M25.191 24.619C25.3951 24.1058 25.1446 23.5242 24.6314 23.3201C22.7597 22.5458 22.3721 27.6985 22.3555 28.7688C22.4403 29.7821 22.1813 31.8228 23.7032 31.6674C24.2467 31.5692 24.608 31.0491 24.5104 30.5057C24.1589 28.5087 24.4144 26.5938 25.191 24.619Z" fill="#742A2C"/>
<path d="M26.889 36.2273C26.2216 35.0992 24.5199 36.0569 25.1488 37.2137C26.1761 39.0271 27.4207 40.9031 28.8475 42.7879C29.0443 43.0476 29.3431 43.1843 29.6458 43.1843C30.44 43.207 30.9509 42.2092 30.4422 41.5808C29.0687 39.7654 27.8729 37.9646 26.889 36.2273Z" fill="#742A2C"/>
<path d="M34.6123 46.5334C33.7181 45.5796 32.2606 46.9327 33.1465 47.8948C33.937 48.7453 34.7695 49.6008 35.6215 50.4367C36.0152 50.8227 36.6487 50.8183 37.0356 50.4231C37.4223 50.0295 37.4164 49.3957 37.0219 49.009C36.1923 48.1946 35.3813 47.3615 34.6123 46.5334Z" fill="#742A2C"/>
<path d="M10.6232 42.8787C10.4406 42.3562 9.86781 42.0808 9.34877 42.2664C8.82777 42.449 8.55336 43.0193 8.73647 43.5408C10.6603 49.0232 13.528 54.4217 17.2589 59.5857C18.0308 60.6395 19.6415 59.4786 18.88 58.4138C15.2619 53.406 12.4835 48.1795 10.6232 42.8787Z" fill="#742A2C"/>
<path d="M54.589 4.9487C54.5606 4.39694 54.0929 3.97214 53.5392 4.00143C52.6993 4.0444 32.8131 5.14889 18.9498 13.3901C10.0641 18.666 5.48252 29.1215 7.54991 39.4072C7.84218 40.6892 9.74293 40.3093 9.51084 39.0126C7.61045 29.5586 11.8141 19.9526 19.9718 15.1093C33.4034 7.12448 53.441 6.00875 53.6417 5.9985C54.193 5.97018 54.6173 5.50045 54.589 4.9487Z" fill="#742A2C"/>
</svg>
