<svg width="70" height="70" viewBox="0 0 70 70" fill="none" xmlns="http://www.w3.org/2000/svg">
<g clip-path="url(#clip0_260_568)">
<path d="M17.4316 4.30664H11.9629C5.36675 4.30664 0 9.67339 0 16.2695V61.3867C0 64.214 2.29965 66.5137 5.12695 66.5137H24.2676C27.0949 66.5137 29.3945 64.214 29.3945 61.3867V16.2695C29.3945 9.67339 24.0278 4.30664 17.4316 4.30664ZM10.8419 6.42258C10.2277 10.9557 6.64902 14.5344 2.11594 15.1485C2.6329 10.577 6.27037 6.93954 10.8419 6.42258ZM2.05078 33.2227C2.05078 31.3535 2.4588 29.5777 3.18993 27.9798L5.88585 31.8159C5.62096 32.2699 5.46875 32.797 5.46875 33.3594V48.3984C5.46875 48.8663 5.57449 49.3101 5.76195 49.7074L2.6329 54.1609C2.26707 53.6546 2.05078 53.0341 2.05078 52.3633V33.2227ZM8.54492 51.4746H20.8496C21.3185 51.4746 21.7628 51.3689 22.1607 51.1803L25.0772 55.3305C24.8193 55.401 24.548 55.4395 24.2676 55.4395H5.12695C4.84657 55.4395 4.57527 55.401 4.31732 55.3305L7.23381 51.1803C7.63168 51.3689 8.07602 51.4746 8.54492 51.4746ZM7.51953 48.3984V33.3594C7.51953 32.7938 7.97936 32.334 8.54492 32.334H20.8496C21.4152 32.334 21.875 32.7938 21.875 33.3594V48.3984C21.875 48.964 21.4152 49.4238 20.8496 49.4238H8.54492C7.97936 49.4238 7.51953 48.964 7.51953 48.3984ZM21.9391 30.4829C21.6 30.3542 21.2331 30.2832 20.8496 30.2832H8.54492C8.16147 30.2832 7.79457 30.3542 7.45545 30.4829L4.31412 26.0123C6.60042 22.729 10.4018 20.5762 14.6973 20.5762C18.9927 20.5762 22.7941 22.729 25.0804 26.0123L21.9391 30.4829ZM27.3438 61.3867C27.3438 63.0829 25.9637 64.4629 24.2676 64.4629H5.12695C3.43079 64.4629 2.05078 63.0829 2.05078 61.3867V56.4622C2.90848 57.1073 3.97339 57.4902 5.12695 57.4902H24.2676C25.4211 57.4902 26.4861 57.1073 27.3438 56.4622V61.3867ZM27.3438 52.3633C27.3438 53.0341 27.1275 53.6546 26.7616 54.1604L23.6326 49.7074C23.82 49.3101 23.9258 48.8663 23.9258 48.3984V33.3594C23.9258 32.797 23.7736 32.2699 23.5087 31.8159L26.2046 27.9798C26.9357 29.5777 27.3438 31.3535 27.3438 33.2227V52.3633ZM27.3438 25.7426C24.7808 21.4259 20.0715 18.5254 14.6973 18.5254C9.32304 18.5254 4.61372 21.4259 2.05078 25.7426V17.2207C7.77107 16.6087 12.302 12.0777 12.9146 6.35742H16.8896C17.1806 9.05922 18.3566 11.5858 20.2632 13.5571C22.1703 15.5293 24.6564 16.7892 27.3438 17.1694V25.7426ZM18.9729 6.47812C23.3228 7.16011 26.7408 10.6817 27.2701 15.0797C22.981 14.3042 19.5967 10.7954 18.9729 6.47812Z" fill="#742A2C"/>
<path d="M58.0371 4.30664H52.5684C45.9722 4.30664 40.6055 9.67339 40.6055 16.2695V61.3867C40.6055 64.214 42.9051 66.5137 45.7324 66.5137H64.873C67.7004 66.5137 70 64.214 70 61.3867V16.2695C70 9.67339 64.6333 4.30664 58.0371 4.30664ZM67.8755 15.0797C63.5865 14.3042 60.2022 10.7954 59.5784 6.47812C63.9283 7.16011 67.3463 10.6817 67.8755 15.0797ZM51.4474 6.42258C50.8332 10.9557 47.2545 14.5344 42.7214 15.1485C43.2384 10.577 46.8758 6.93954 51.4474 6.42258ZM42.6563 33.2227C42.6563 31.3535 43.0643 29.5777 43.7954 27.9798L46.4913 31.8159C46.2264 32.2699 46.0742 32.797 46.0742 33.3594V48.3984C46.0742 48.8663 46.18 49.3101 46.3674 49.7074L43.2384 54.1609C42.8725 53.6546 42.6563 53.0341 42.6563 52.3633V33.2227ZM49.1504 51.4746H61.4551C61.924 51.4746 62.3683 51.3689 62.7662 51.1803L65.6827 55.3305C65.4247 55.401 65.1534 55.4395 64.873 55.4395H45.7324C45.452 55.4395 45.1807 55.401 44.9228 55.3305L47.8393 51.1803C48.2372 51.3689 48.6815 51.4746 49.1504 51.4746ZM48.125 48.3984V33.3594C48.125 32.7938 48.5848 32.334 49.1504 32.334H61.4551C62.0206 32.334 62.4805 32.7938 62.4805 33.3594V48.3984C62.4805 48.964 62.0206 49.4238 61.4551 49.4238H49.1504C48.5848 49.4238 48.125 48.964 48.125 48.3984ZM62.5446 30.4829C62.2054 30.3542 61.8385 30.2832 61.4551 30.2832H49.1504C48.7669 30.2832 48.4 30.3542 48.0609 30.4829L44.9196 26.0123C47.2059 22.729 51.0073 20.5762 55.3027 20.5762C59.5982 20.5762 63.3996 22.729 65.6859 26.0123L62.5446 30.4829ZM67.9492 61.3867C67.9492 63.0829 66.5692 64.4629 64.873 64.4629H45.7324C44.0363 64.4629 42.6563 63.0829 42.6563 61.3867V56.4622C43.5139 57.1073 44.5789 57.4902 45.7324 57.4902H64.873C66.0266 57.4902 67.0915 57.1073 67.9492 56.4622V61.3867ZM67.9492 52.3633C67.9492 53.0341 67.7329 53.6546 67.3671 54.1604L64.2381 49.7074C64.4255 49.3101 64.5313 48.8663 64.5313 48.3984V33.3594C64.5313 32.797 64.379 32.2699 64.1142 31.8159L66.8101 27.9798C67.5412 29.5777 67.9492 31.3535 67.9492 33.2227V52.3633ZM67.9492 25.7426C65.3863 21.4259 60.677 18.5254 55.3027 18.5254C49.9285 18.5254 45.2192 21.4259 42.6563 25.7426V17.2207C48.3765 16.6087 52.9075 12.0777 53.5201 6.35742H57.495C57.7861 9.05922 58.9621 11.5858 60.8687 13.5571C62.7758 15.5293 65.2618 16.7892 67.9492 17.1694V25.7426Z" fill="#742A2C"/>
<path d="M34.043 67.9492H36.0938V70H34.043V67.9492Z" fill="#742A2C"/>
<path d="M34.043 4.10156H36.0938V65.8984H34.043V4.10156Z" fill="#742A2C"/>
<path d="M34.043 0H36.0938V2.05078H34.043V0Z" fill="#742A2C"/>
<path d="M4.03125 60.3613H6.08203V62.4121H4.03125V60.3613Z" fill="#742A2C"/>
<path d="M23.3086 60.3613H25.3594V62.4121H23.3086V60.3613Z" fill="#742A2C"/>
<path d="M44.9141 60.3613H46.9648V62.4121H44.9141V60.3613Z" fill="#742A2C"/>
<path d="M64.1875 60.3613H66.2383V62.4121H64.1875V60.3613Z" fill="#742A2C"/>
</g>
<defs>
<clipPath id="clip0_260_568">
<rect width="70" height="70" fill="white"/>
</clipPath>
</defs>
</svg>
