<svg width="70" height="70" viewBox="0 0 70 70" fill="none" xmlns="http://www.w3.org/2000/svg">
<path d="M68.2063 34.2307L53.6245 27.6488V21.0196C53.6245 20.6947 53.4596 20.3919 53.1866 20.2156C52.9136 20.0393 52.5699 20.0134 52.2737 20.1473L37.1287 26.9834C36.7858 27.1381 36.5654 27.4794 36.5654 27.8556V32.9025H29.5217C28.9931 32.9025 28.5646 33.3309 28.5646 33.8595V44.7681H20.8685L20.055 20.3839H20.6114C21.14 20.3839 21.5685 19.9555 21.5685 19.4269V13.6393C21.5685 13.1108 21.14 12.6823 20.6114 12.6823H11.0977C10.5692 12.6823 10.1407 13.1108 10.1407 13.6393V19.4269C10.1407 19.9555 10.5692 20.3839 11.0977 20.3839H11.6542L10.8407 44.7681H2.1875C1.65895 44.7681 1.23047 45.1966 1.23047 45.7252V67.8125C1.23047 68.3411 1.65895 68.7695 2.1875 68.7695H67.8125C68.3411 68.7695 68.7695 68.3411 68.7695 67.8125V35.1029C68.7695 34.7267 68.5491 34.3854 68.2063 34.2307ZM51.7104 22.5014V66.8555H38.4795V28.4736L51.7104 22.5014ZM36.5654 34.8165V66.8555H30.4787V34.8165H36.5654ZM12.0548 14.5964H19.6544V18.4699H12.0548V14.5964ZM13.5693 20.3839H18.1398L18.9533 44.7681H12.7559L13.5693 20.3839ZM28.5648 46.6822V50.0023H3.14453V46.6822H28.5648ZM3.14453 51.9163H28.5648V66.8555H3.14453V51.9163ZM66.8555 66.8555H63.691C63.6918 66.8391 63.6934 66.8228 63.6934 66.8061V40.1764C63.6934 39.6479 63.265 39.2194 62.7364 39.2194C62.2079 39.2194 61.7794 39.6479 61.7794 40.1764V66.8061C61.7794 66.8228 61.781 66.8391 61.7818 66.8555H58.6983C58.6991 66.8391 58.7007 66.8228 58.7007 66.8061V40.1764C58.7007 39.6479 58.2723 39.2194 57.7437 39.2194C57.2152 39.2194 56.7867 39.6479 56.7867 40.1764V66.8061C56.7867 66.8228 56.7883 66.8391 56.7891 66.8555H53.6246V29.7486L66.8555 35.7209V66.8555ZM35 17.2616C38.083 17.2616 40.5912 14.7533 40.5912 11.6703C40.5912 8.58731 38.083 6.07934 35 6.07934C31.917 6.07934 29.4089 8.58744 29.4089 11.6704C29.4089 14.7535 31.917 17.2616 35 17.2616ZM35 7.9934C37.0275 7.9934 38.6772 9.64291 38.6772 11.6704C38.6772 13.698 37.0275 15.3475 35 15.3475C32.9725 15.3475 31.3229 13.698 31.3229 11.6703C31.3229 9.64264 32.9725 7.9934 35 7.9934ZM26.1401 14.1985C26.8464 14.1985 27.1249 14.7384 27.1934 14.904C27.2619 15.0696 27.4468 15.6481 26.9474 16.1476C26.6489 16.446 26.4846 16.8428 26.4846 17.2648C26.4846 17.6869 26.6489 18.0838 26.9474 18.382L28.2885 19.723C28.9044 20.339 29.9068 20.339 30.5229 19.723C31.0235 19.2227 31.6017 19.4071 31.7671 19.4756C31.9324 19.5441 32.4719 19.8226 32.4719 20.5304C32.4719 21.4015 33.1807 22.1103 34.0519 22.1103H35.9484C36.8196 22.1103 37.5283 21.4015 37.5283 20.5304C37.5283 19.8242 38.0682 19.5457 38.2338 19.4771C38.3994 19.4085 38.9781 19.2236 39.4774 19.723C40.0933 20.339 41.0957 20.3391 41.7118 19.723L43.0529 18.382C43.6688 17.7661 43.6688 16.7638 43.0529 16.1476C42.5536 15.6483 42.7384 15.0694 42.8069 14.904C42.8754 14.7386 43.1539 14.1987 43.8601 14.1987C44.7314 14.1987 45.4401 13.4899 45.4401 12.6187V10.7222C45.4401 9.851 44.7314 9.14225 43.8601 9.14225C43.1539 9.14225 42.8754 8.60234 42.8069 8.43691C42.7384 8.27148 42.5534 7.69262 43.0529 7.19318C43.6689 6.57713 43.6689 5.57484 43.0529 4.95879L41.7118 3.61771C41.0957 3.00166 40.0933 3.0018 39.4774 3.61771C38.9781 4.11701 38.3994 3.9323 38.2338 3.86367C38.0684 3.79518 37.5283 3.51654 37.5283 2.81039C37.5283 1.93922 36.8196 1.23047 35.9484 1.23047H34.0519C33.1807 1.23047 32.4719 1.93922 32.4719 2.81039C32.4719 3.51654 31.932 3.79504 31.7665 3.86367C31.601 3.9323 31.0222 4.11701 30.5229 3.61771C29.9068 3.00193 28.9045 3.0018 28.2885 3.61771L26.9475 4.95879C26.6491 5.25711 26.4847 5.65387 26.4847 6.07606C26.4847 6.49824 26.6491 6.895 26.9475 7.19318C27.4468 7.69248 27.262 8.27135 27.1935 8.43678C27.125 8.60221 26.8464 9.14225 26.1402 9.14225C25.269 9.14225 24.5603 9.851 24.5603 10.7222V12.6187C24.5602 13.4898 25.2689 14.1985 26.1401 14.1985ZM26.4742 11.0389C27.5877 10.9229 28.5228 10.2288 28.9617 9.16918C29.4005 8.10961 29.2302 6.95748 28.5249 6.08809L29.4178 5.19504C30.2872 5.90037 31.4394 6.07072 32.4989 5.63186C33.5583 5.19299 34.2526 4.25797 34.3686 3.14453H35.6314C35.7474 4.25797 36.4416 5.19313 37.5011 5.63199C38.5604 6.071 39.7128 5.90051 40.5822 5.19518L41.4753 6.08822C40.7699 6.95748 40.5996 8.10975 41.0385 9.16932C41.4773 10.2289 42.4126 10.923 43.5259 11.0391V12.3017C42.4125 12.4178 41.4773 13.1119 41.0385 14.1714C40.5996 15.231 40.7701 16.3833 41.4753 17.2525L40.5822 18.1456C39.7128 17.4403 38.5603 17.2699 37.5011 17.7088C36.4416 18.1476 35.7474 19.0828 35.6314 20.1962H34.3686C34.2527 19.0818 33.5587 18.146 32.4995 17.7073C31.4401 17.2685 30.2877 17.4396 29.4178 18.1456L28.5249 17.2525C29.2301 16.3833 29.4005 15.231 28.9617 14.1714C28.5228 13.1119 27.5875 12.4178 26.4741 12.3017L26.4742 11.0389ZM40.4391 39.1676C40.4391 38.639 40.8676 38.2106 41.3961 38.2106H48.794C49.3225 38.2106 49.751 38.639 49.751 39.1676C49.751 39.6962 49.3225 40.1246 48.794 40.1246H41.3961C40.8676 40.1246 40.4391 39.696 40.4391 39.1676ZM40.4391 33.7358C40.4391 33.2072 40.8676 32.7787 41.3961 32.7787H48.794C49.3225 32.7787 49.751 33.2072 49.751 33.7358C49.751 34.2643 49.3225 34.6928 48.794 34.6928H41.3961C40.8676 34.6928 40.4391 34.2642 40.4391 33.7358Z" fill="#742A2C"/>
</svg>
