<svg width="70" height="70" viewBox="0 0 70 70" fill="none" xmlns="http://www.w3.org/2000/svg">
<path fill-rule="evenodd" clip-rule="evenodd" d="M60.8785 8.63294L58.0859 11.8909C58.0434 11.9406 58.0434 12.0125 58.0859 12.0622L60.8785 15.3202C60.9151 15.3627 60.9715 15.3774 61.0241 15.358C61.0768 15.3385 61.1101 15.2906 61.1101 15.2345V8.71862C61.1101 8.66248 61.0768 8.6146 61.0241 8.59514C60.9715 8.57568 60.9151 8.59038 60.8785 8.63294ZM12.827 47.3841V39.8529V38.1956V33.4232C12.827 32.8478 13.0618 32.3253 13.4398 31.9471C13.8179 31.5691 14.3403 31.3344 14.9158 31.3344H15.7155C15.788 31.3344 15.8471 31.2753 15.8471 31.2028V14.8545C15.8471 14.6492 15.7622 14.4616 15.6257 14.3251C15.4892 14.1886 15.3018 14.1037 15.0963 14.1037H10.7438C10.6713 14.1037 10.6122 14.0446 10.6122 13.9721V8.133C10.6122 7.5877 10.1701 7.14558 9.62478 7.14558C9.07948 7.14558 8.63736 7.5877 8.63736 8.133V13.9723C8.63736 14.0448 8.57828 14.1039 8.50576 14.1039H4.15316C3.94778 14.1039 3.76032 14.1887 3.62382 14.3252C3.48732 14.4617 3.40262 14.6492 3.40262 14.8547V61.3273C3.40262 61.3998 3.4617 61.4589 3.53422 61.4589H12.6954C12.7679 61.4589 12.827 61.3998 12.827 61.3273V54.9153V53.3953V49.5954V47.3841ZM32.4547 55.9025C32.5272 55.9025 32.5863 55.9616 32.5863 56.0341V61.327C32.5863 61.3995 32.5272 61.4586 32.4547 61.4586H16.8346H14.9336C14.8611 61.4586 14.802 61.3995 14.802 61.327V56.0341C14.802 55.9616 14.8611 55.9025 14.9336 55.9025H32.4547ZM14.9336 38.8655C14.8611 38.8655 14.802 38.8064 14.802 38.7339V38.1958V33.4233C14.802 33.3931 14.8151 33.3646 14.8361 33.3436C14.8573 33.3226 14.8856 33.3095 14.9158 33.3095H32.4724C32.5027 33.3095 32.531 33.3226 32.552 33.3436C32.5732 33.3648 32.5862 33.3931 32.5862 33.4233V38.1958V38.7339C32.5862 38.8064 32.5271 38.8655 32.4546 38.8655H14.9336ZM14.9336 46.3965C14.8611 46.3965 14.802 46.3375 14.802 46.2649V40.972C14.802 40.8994 14.8611 40.8404 14.9336 40.8404H32.4549C32.5274 40.8404 32.5865 40.8994 32.5865 40.972V46.2649C32.5865 46.3375 32.5274 46.3965 32.4549 46.3965H14.9336ZM32.5865 53.3951V53.7961C32.5865 53.8686 32.5274 53.9277 32.4549 53.9277H14.9336C14.8611 53.9277 14.802 53.8686 14.802 53.7961V53.3951V49.5953V48.5031C14.802 48.4306 14.8611 48.3715 14.9336 48.3715H32.4549C32.5274 48.3715 32.5865 48.4306 32.5865 48.5031V49.5953V53.3951ZM40.1862 61.3271V45.0145C40.1862 44.9419 40.1271 44.8829 40.0546 44.8829H34.693C34.6205 44.8829 34.5614 44.9419 34.5614 45.0145V47.384V49.5953V53.3951V54.9151V61.3271C34.5614 61.3996 34.6205 61.4587 34.693 61.4587H40.0546C40.127 61.4587 40.1862 61.3996 40.1862 61.3271ZM47.8203 65.29H3.53394C3.46142 65.29 3.40234 65.2309 3.40234 65.1584V63.4467C3.40234 63.3742 3.46142 63.3151 3.53394 63.3151H46.7011C46.7737 63.3151 46.8327 63.256 46.8327 63.1835V60.7146H46.835C46.8348 60.5122 46.8967 60.3079 47.0255 60.1322L50.3201 55.6455C50.3375 55.622 50.3456 55.5968 50.3456 55.5675V18.7768C50.3456 18.7043 50.2865 18.6452 50.214 18.6452H26.0227C25.9502 18.6452 25.8911 18.7043 25.8911 18.7768V22.4418C25.8911 22.9871 25.449 23.4293 24.9037 23.4293C24.3505 23.4293 23.8499 23.6534 23.4876 24.0157C23.1253 24.378 22.9011 24.8788 22.9011 25.4318C22.9011 25.985 23.1253 26.4857 23.4876 26.8479C23.8499 27.2102 24.3507 27.4344 24.9037 27.4344C25.2724 27.4344 25.6129 27.3395 25.9015 27.1736C26.2022 27.0008 26.4559 26.7467 26.6355 26.439C26.9103 25.9682 27.5147 25.8094 27.9855 26.0841C28.4563 26.3589 28.6151 26.9633 28.3404 27.4341C27.9926 28.0302 27.4882 28.5295 26.8812 28.8783C26.2936 29.216 25.618 29.4091 24.9037 29.4091C23.8055 29.4091 22.8111 28.9639 22.0912 28.244C21.3715 27.5241 20.9261 26.5297 20.9261 25.4315C20.9261 24.3334 21.3713 23.339 22.0912 22.6191C22.5648 22.1455 23.1576 21.7907 23.8204 21.6034C23.8779 21.5871 23.9163 21.5365 23.9163 21.4767V18.7705C23.9163 18.7027 23.8654 18.6464 23.7981 18.6396C23.3007 18.5886 22.9125 18.1682 22.9125 17.6573V14.0693C22.9125 13.5947 23.2473 13.1982 23.6938 13.1034C23.6977 13.1026 23.7011 13.1017 23.7049 13.1006L50.954 4.78476C50.9578 4.78364 50.961 4.78252 50.9648 4.78098C51.0786 4.73506 51.2032 4.70972 51.3336 4.70972H52.728H62.0979C62.6432 4.70972 63.0853 5.15184 63.0853 5.69714V55.5672C63.0853 55.5965 63.0936 55.6216 63.1108 55.6452L66.3633 60.0745C66.365 60.0769 66.3665 60.0789 66.3685 60.0811C66.512 60.2526 66.5984 60.4733 66.5984 60.7143V64.3024C66.5984 64.8477 66.1562 65.2898 65.6109 65.2898H48.2539H47.8203V65.29ZM31.3871 13.0821H50.2143C50.2868 13.0821 50.3459 13.0231 50.3459 12.9505V7.2048C50.3459 7.16168 50.3273 7.12472 50.2925 7.0991C50.258 7.07348 50.2171 7.06634 50.1758 7.07894L31.3486 12.8247C31.2857 12.8439 31.2471 12.905 31.2567 12.97C31.2665 13.0348 31.3214 13.0821 31.3871 13.0821ZM56.6155 13.6064C56.6414 13.5762 56.6757 13.5605 56.7155 13.5605C56.7552 13.5605 56.7895 13.5762 56.8154 13.6064L60.727 18.17C60.7696 18.2197 60.7696 18.2917 60.727 18.3414L56.8154 22.905C56.7895 22.9352 56.7552 22.9509 56.7155 22.9509C56.6757 22.9509 56.6414 22.9352 56.6155 22.905L52.7039 18.3414C52.6613 18.2917 52.6613 18.2197 52.7039 18.17L56.6155 13.6064ZM58.0861 24.6204L60.8787 27.8783C60.9152 27.9209 60.9716 27.9356 61.0243 27.9161C61.0769 27.8967 61.1102 27.8488 61.1102 27.7926V21.2768C61.1102 21.2206 61.0769 21.1727 61.0243 21.1533C60.9716 21.1338 60.9152 21.1485 60.8787 21.1911L58.0861 24.449C58.0435 24.4989 58.0435 24.5708 58.0861 24.6204ZM60.8785 33.7494L58.0859 37.0073C58.0434 37.057 58.0434 37.129 58.0859 37.1787L60.8785 40.4366C60.9151 40.4792 60.9715 40.4939 61.0241 40.4744C61.0768 40.4549 61.1101 40.4071 61.1101 40.3509V33.835C61.1101 33.7789 61.0768 33.731 61.0241 33.7116C60.9715 33.6922 60.9151 33.7068 60.8785 33.7494ZM56.6155 38.723L52.7039 43.2866C52.6613 43.3363 52.6613 43.4082 52.7039 43.4579L56.6155 48.0215C56.6414 48.0518 56.6757 48.0674 56.7155 48.0674C56.7552 48.0674 56.7895 48.0518 56.8154 48.0215L60.727 43.4579C60.7696 43.4082 60.7696 43.3363 60.727 43.2866L56.8154 38.723C56.7895 38.6928 56.7552 38.6771 56.7155 38.6771C56.6757 38.6771 56.6414 38.6928 56.6155 38.723ZM55.3449 49.5657L52.5523 46.3078C52.5158 46.2652 52.4593 46.2505 52.4067 46.27C52.354 46.2894 52.3207 46.3373 52.3207 46.3935V52.9093C52.3207 52.9655 52.354 53.0134 52.4067 53.0328C52.4593 53.0523 52.5158 53.0376 52.5523 52.995L55.3449 49.7371C55.3874 49.6872 55.3874 49.6153 55.3449 49.5657ZM52.5524 40.4366L55.345 37.1787C55.3876 37.129 55.3876 37.057 55.345 37.0073L52.5524 33.7494C52.5159 33.7068 52.4595 33.6921 52.4068 33.7116C52.3542 33.731 52.3209 33.7789 52.3209 33.835V40.3509C52.3209 40.4071 52.3542 40.4549 52.4068 40.4744C52.4595 40.4939 52.5159 40.4793 52.5524 40.4366ZM56.8154 35.4631L60.727 30.8995C60.7696 30.8498 60.7696 30.7779 60.727 30.7282L56.8154 26.1646C56.7895 26.1343 56.7552 26.1187 56.7155 26.1187C56.6757 26.1187 56.6414 26.1343 56.6155 26.1646L52.7039 30.7282C52.6613 30.7779 52.6613 30.8498 52.7039 30.8995L56.6155 35.4631C56.6414 35.4933 56.6757 35.509 56.7155 35.509C56.7552 35.509 56.7895 35.4933 56.8154 35.4631ZM55.3449 24.4492L52.5523 21.1912C52.5158 21.1487 52.4593 21.134 52.4067 21.1534C52.354 21.1729 52.3207 21.2208 52.3207 21.2769V27.7928C52.3207 27.8489 52.354 27.8968 52.4067 27.9163C52.4593 27.9357 52.5158 27.921 52.5523 27.8785L55.3449 24.6205C55.3874 24.5708 55.3874 24.4989 55.3449 24.4492ZM52.5524 15.32L55.345 12.0621C55.3876 12.0124 55.3876 11.9404 55.345 11.8907L52.5524 8.6328C52.5159 8.59024 52.4595 8.57554 52.4068 8.595C52.3542 8.61446 52.3209 8.66234 52.3209 8.71848V15.2344C52.3209 15.2905 52.3542 15.3384 52.4068 15.3578C52.4595 15.3774 52.5159 15.3627 52.5524 15.32ZM56.8154 10.3467C56.7895 10.3769 56.7552 10.3926 56.7155 10.3926C56.6757 10.3926 56.6414 10.3769 56.6155 10.3467L53.6632 6.90226C53.629 6.86236 53.6216 6.80944 53.6434 6.76156C53.6654 6.71382 53.7105 6.68498 53.763 6.68498H59.6678C59.7204 6.68498 59.7654 6.71382 59.7873 6.76156C59.8093 6.8093 59.8019 6.86236 59.7678 6.90226L56.8154 10.3467ZM60.8785 46.3076L58.0859 49.5656C58.0434 49.6153 58.0434 49.6872 58.0859 49.7369L60.8785 52.9949C60.9151 53.0374 60.9715 53.0521 61.0241 53.0327C61.0768 53.0132 61.1101 52.9653 61.1101 52.9092V46.3933C61.1101 46.3372 61.0768 46.2893 61.0241 46.2698C60.9715 46.2504 60.9151 46.2651 60.8785 46.3076ZM59.7678 54.7257L57.7904 52.4186L56.8154 51.2811C56.7895 51.2509 56.7552 51.2352 56.7155 51.2352C56.6757 51.2352 56.6414 51.2509 56.6155 51.2811L55.6674 52.3873L53.6632 54.7257C53.629 54.7656 53.6216 54.8187 53.6434 54.8664C53.6654 54.9141 53.7105 54.943 53.763 54.943H59.6678C59.7204 54.943 59.7654 54.9141 59.7873 54.8664C59.8093 54.8185 59.8021 54.7656 59.7678 54.7257Z" fill="#742A2C"/>
</svg>
