<svg width="70" height="70" viewBox="0 0 70 70" fill="none" xmlns="http://www.w3.org/2000/svg">
<g clip-path="url(#clip0_260_558)">
<path d="M5.62866 17.9926C5.64315 18.6123 6.02432 19.1617 6.59964 19.3921C7.17509 19.6226 7.82997 19.4882 8.26815 19.05L9.6862 17.632L16.2141 24.1599C16.5744 24.5201 17.0475 24.7002 17.5209 24.7002C17.9942 24.7002 18.4674 24.5201 18.8276 24.1599L22.1104 20.8771C22.4596 20.5281 22.6518 20.0641 22.6518 19.5702C22.6518 19.0764 22.4596 18.6124 22.1105 18.2634L15.5826 11.7356L17.0007 10.3175C17.439 9.87935 17.5732 9.22433 17.3427 8.64902C17.1122 8.07357 16.5629 7.6924 15.9431 7.6779L7.92143 7.49128C7.26395 7.47706 6.61727 7.7345 6.15134 8.20058C5.68526 8.66665 5.42686 9.31183 5.44204 9.97068L5.62866 17.9926ZM7.60138 9.65075C7.64348 9.60864 7.73509 9.53523 7.87372 9.54165L14.7172 9.70093L13.8535 10.5644C13.2078 11.2103 13.2078 12.2609 13.8535 12.9067L20.5171 19.5702L17.5209 22.5663L10.8573 15.9026C10.5345 15.5798 10.1104 15.4184 9.68634 15.4184C9.26223 15.4184 8.83813 15.5798 8.51534 15.9026L7.65169 16.7663L7.49227 9.92296C7.48899 9.78419 7.55927 9.69286 7.60138 9.65075Z" fill="#742A2C"/>
<path d="M51.1748 24.1602C51.535 24.5203 52.0082 24.7004 52.4814 24.7004C52.9547 24.7004 53.428 24.5202 53.7883 24.1601L60.3162 17.6321L61.7341 19.0502C62.1724 19.4884 62.8276 19.6224 63.4028 19.3923C63.9781 19.1616 64.3593 18.6124 64.3737 17.9928L64.5604 9.97097C64.5757 9.31212 64.3173 8.66681 63.8511 8.20087C63.3851 7.73493 62.746 7.48023 62.081 7.49157L54.0591 7.6782C53.4395 7.69255 52.8901 8.07386 52.6597 8.64931C52.4293 9.22476 52.5636 9.87978 53.0018 10.3178L54.4198 11.7357L47.8919 18.2636C47.1715 18.9842 47.1714 20.1565 47.8919 20.8773L51.1748 24.1602ZM56.149 12.9069C56.7947 12.261 56.7947 11.2105 56.149 10.5646L55.2854 9.70109L62.1288 9.54181C62.2655 9.53593 62.3589 9.6088 62.401 9.65091C62.4431 9.69316 62.5133 9.78449 62.5101 9.92312L62.3509 16.7666L61.4873 15.9029C60.8413 15.2572 59.7911 15.2575 59.1451 15.9029L52.4815 22.5666L49.4855 19.5705L56.149 12.9069Z" fill="#742A2C"/>
<path d="M68.9745 47.8943H64.8733V44.0726C64.8733 43.5062 64.4144 43.0472 63.8479 43.0472C63.2815 43.0472 62.8226 43.5062 62.8226 44.0726V47.8943H46.7073V35.5477C46.7073 35.0947 46.4099 34.6952 45.9758 34.5652L41.5807 33.2497V29.8901H49.1894V35.0057C49.1894 35.5722 49.6484 36.0311 50.2148 36.0311H54.1884C54.7548 36.0311 55.2138 35.5722 55.2138 35.0057V29.8901H62.8224V40.1075C62.8224 40.6739 63.2814 41.1329 63.8478 41.1329C64.4142 41.1329 64.8732 40.6739 64.8732 40.1075V28.8647C64.8732 28.2983 64.4142 27.8394 63.8478 27.8394H40.5554C39.9889 27.8394 39.53 28.2983 39.53 28.8647V32.6358L23.6476 27.8823C23.456 27.8251 23.2514 27.8251 23.0596 27.8823L0.731444 34.5654C0.297363 34.6952 0 35.0947 0 35.5478V68.9745C0 69.541 0.459101 69.9999 1.02539 69.9999H68.9745C69.5409 69.9999 69.9999 69.541 69.9999 68.9745V48.9197C69.9999 48.3534 69.5409 47.8943 68.9745 47.8943ZM53.1631 29.8904V33.9806H51.2403V29.8904H53.1631ZM58.2896 49.9451V54.0353H56.3668V49.9451H58.2896ZM23.3537 53.1179C23.92 53.1179 24.3791 52.659 24.3791 52.0925V50.5892H28.1868V58.2438H18.5207V50.5892H22.3283V52.0925C22.3283 52.6588 22.7874 53.1179 23.3537 53.1179ZM17.4953 62.8232C18.0616 62.8232 18.5207 62.3642 18.5207 61.7978V60.2945H22.3283V67.9491H12.6623V60.2945H16.4699V61.7978C16.4699 62.3641 16.9289 62.8232 17.4953 62.8232ZM24.3791 67.9491V60.2945H28.1868V61.7978C28.1868 62.3642 28.6459 62.8232 29.2122 62.8232C29.7785 62.8232 30.2376 62.3642 30.2376 61.7978V60.2945H34.0452V67.9491H24.3791ZM36.0959 67.9491V59.2692C36.0959 58.7027 35.6369 58.2438 35.0705 58.2438H30.2375V49.5638C30.2375 48.9974 29.7784 48.5384 29.2121 48.5384H17.4952C16.9289 48.5384 16.4698 48.9974 16.4698 49.5638V58.2438H11.6368C11.0705 58.2438 10.6114 58.7027 10.6114 59.2692V67.9491H7.89754V51.5462C7.89754 50.9798 7.43844 50.5208 6.87215 50.5208C6.30587 50.5208 5.84677 50.9798 5.84677 51.5462V67.9491H2.05091V36.3113L23.3537 29.9354L44.6565 36.3113V67.9491H40.8605V42.1288C40.8605 41.022 39.9601 40.1217 38.8533 40.1217H7.85393C6.74719 40.1217 5.84677 41.022 5.84677 42.1288V47.5815C5.84677 48.1479 6.30587 48.6069 6.87215 48.6069C7.43844 48.6069 7.89754 48.1479 7.89754 47.5815V42.1726H38.8097V67.9493H36.0959V67.9491ZM67.9491 67.9491H46.7073V49.9451H54.3159V55.0607C54.3159 55.6271 54.7749 56.0861 55.3413 56.0861H59.3149C59.8813 56.0861 60.3403 55.6271 60.3403 55.0607V49.9451H67.9491V67.9491Z" fill="#742A2C"/>
<path d="M28.8241 9.16863H30.8295V11.9314C30.8295 12.4979 31.2886 12.9568 31.8549 12.9568C32.4211 12.9568 32.8802 12.4979 32.8802 11.9314V8.77406C32.8802 7.86078 32.1373 7.11799 31.2242 7.11799H30.0027L34.7291 2.16631C34.8249 2.06582 34.9392 2.05078 34.9987 2.05078C35.0583 2.05078 35.1726 2.06582 35.2684 2.16631L39.9948 7.11799H38.7734C37.8601 7.11799 37.1173 7.86092 37.1173 8.77406V18.1978H32.8801V15.8963C32.8801 15.3299 32.421 14.8709 31.8547 14.8709C31.2884 14.8709 30.8293 15.3299 30.8293 15.8963V18.4006C30.8293 19.4195 31.6584 20.2486 32.6775 20.2486H37.3201C38.3392 20.2486 39.1682 19.4197 39.1682 18.4006V9.16863H41.1736C41.7934 9.16863 42.3514 8.80045 42.5952 8.23061C42.8391 7.66076 42.7202 7.00287 42.2921 6.55443L36.7518 0.750176C36.2967 0.273438 35.6578 0 34.9987 0C34.3397 0.000136719 33.7007 0.273574 33.2457 0.750176L27.7054 6.55443C27.2775 7.00273 27.1586 7.66076 27.4023 8.23061C27.6461 8.80045 28.2042 9.16863 28.8241 9.16863Z" fill="#742A2C"/>
</g>
<defs>
<clipPath id="clip0_260_558">
<rect width="70" height="70" fill="white"/>
</clipPath>
</defs>
</svg>
