<svg width="70" height="70" viewBox="0 0 70 70" fill="none" xmlns="http://www.w3.org/2000/svg">
<g clip-path="url(#clip0_260_439)">
<path d="M18.457 53.457H10.2539C4.59826 53.457 0 48.8569 0 43.2031V30.8984C0 30.4679 0.136172 30.0493 0.384453 29.7008C0.753047 29.1941 4.2458 24.7461 14.3555 24.7461C24.4651 24.7461 27.9579 29.1941 28.3263 29.7008C28.5746 30.0493 28.7109 30.4678 28.7109 30.8984V43.2031C28.7109 48.8569 24.1127 53.457 18.457 53.457Z" fill="#742A2C"/>
<path d="M35 32.9492C33.8665 32.9492 32.9492 32.032 32.9492 30.8984V26.7969C32.9492 25.6633 33.8665 24.7461 35 24.7461C36.1335 24.7461 37.0508 25.6633 37.0508 26.7969V30.8984C37.0508 32.032 36.1335 32.9492 35 32.9492Z" fill="#742A2C"/>
<path d="M35 45.2539C33.8665 45.2539 32.9492 44.3367 32.9492 43.2031V39.1016C32.9492 37.968 33.8665 37.0508 35 37.0508C36.1335 37.0508 37.0508 37.968 37.0508 39.1016V43.2031C37.0508 44.3367 36.1335 45.2539 35 45.2539Z" fill="#742A2C"/>
<path d="M35 57.5586C33.8665 57.5586 32.9492 56.6413 32.9492 55.5078V51.4062C32.9492 50.2727 33.8665 49.3555 35 49.3555C36.1335 49.3555 37.0508 50.2727 37.0508 51.4062V55.5078C37.0508 56.6413 36.1335 57.5586 35 57.5586Z" fill="#742A2C"/>
<path d="M35 69.8633C33.8665 69.8633 32.9492 68.946 32.9492 67.8125V63.7109C32.9492 62.5774 33.8665 61.6602 35 61.6602C36.1335 61.6602 37.0508 62.5774 37.0508 63.7109V67.8125C37.0508 68.946 36.1335 69.8633 35 69.8633Z" fill="#742A2C"/>
<path d="M47.3047 49.3555C46.1712 49.3555 45.2539 48.4382 45.2539 47.3047V22.6953C45.2539 21.5618 46.1712 20.6445 47.3047 20.6445H57.5586C62.0807 20.6445 65.7617 24.3235 65.7617 28.8477C65.7617 33.3718 62.0807 37.0508 57.5586 37.0508H49.3555V47.3047C49.3555 48.4382 48.4382 49.3555 47.3047 49.3555ZM49.3555 32.9492H57.5586C59.8217 32.9492 61.6602 31.1087 61.6602 28.8477C61.6602 26.5866 59.8217 24.7461 57.5586 24.7461H49.3555V32.9492Z" fill="#742A2C"/>
<path d="M26.6602 4.10156H2.05078C0.917246 4.10156 0 3.18432 0 2.05078C0 0.917246 0.917246 0 2.05078 0H26.6602C27.7937 0 28.7109 0.917246 28.7109 2.05078C28.7109 3.18432 27.7937 4.10156 26.6602 4.10156Z" fill="#742A2C"/>
<path d="M67.9492 4.23828H43.2031C42.0696 4.23828 41.1523 3.32104 41.1523 2.1875C41.1523 1.05396 42.0696 0.136719 43.2031 0.136719H67.9492C69.0828 0.136719 70 1.05396 70 2.1875C70 3.32104 69.0828 4.23828 67.9492 4.23828Z" fill="#742A2C"/>
<path d="M26.6602 70H2.05078C0.917246 70 0 69.0828 0 67.9492C0 66.8157 0.917246 65.8984 2.05078 65.8984H26.6602C27.7937 65.8984 28.7109 66.8157 28.7109 67.9492C28.7109 69.0828 27.7937 70 26.6602 70Z" fill="#742A2C"/>
<path d="M22.5586 16.543C21.4251 16.543 20.5078 15.6257 20.5078 14.4922C20.5078 13.3587 21.4251 12.4414 22.5586 12.4414H25.985C25.95 12.4053 25.9269 12.3628 25.8911 12.3272C22.0378 8.49201 15.5571 8.33984 14.3515 8.33984C13.0056 8.43992 6.66504 8.50213 2.81982 12.3272C2.78414 12.3628 2.76103 12.4053 2.72604 12.4414H6.15234C7.28588 12.4414 8.20312 13.3587 8.20312 14.4922C8.20312 15.6257 7.28588 16.543 6.15234 16.543H0.413027C0.166934 17.4464 0 18.39 0 19.4149V24.5533C2.63402 22.692 7.14273 20.6445 14.3555 20.6445C21.5727 20.6445 26.0829 22.6948 28.7109 24.5498V19.4147C28.7109 18.3899 28.544 17.4463 28.2979 16.5428L22.5586 16.543Z" fill="#742A2C"/>
<path d="M35 20.6445C33.8665 20.6445 32.9492 19.7273 32.9492 18.5938V14.4922C32.9492 13.3587 33.8665 12.4414 35 12.4414C36.1335 12.4414 37.0508 13.3587 37.0508 14.4922V18.5938C37.0508 19.7273 36.1335 20.6445 35 20.6445Z" fill="#742A2C"/>
<path d="M35 8.33984C33.8665 8.33984 32.9492 7.4226 32.9492 6.28906V2.1875C32.9492 1.05396 33.8665 0.136719 35 0.136719C36.1335 0.136719 37.0508 1.05396 37.0508 2.1875V6.28906C37.0508 7.4226 36.1335 8.33984 35 8.33984Z" fill="#742A2C"/>
<path d="M67.9492 69.8633H43.2031C42.0696 69.8633 41.1523 68.946 41.1523 67.8125C41.1523 66.679 42.0696 65.7617 43.2031 65.7617H67.9492C69.0828 65.7617 70 66.679 70 67.8125C70 68.946 69.0828 69.8633 67.9492 69.8633Z" fill="#742A2C"/>
<path d="M18.457 57.5587H10.2539C6.23547 57.5587 2.60859 55.8884 0 53.218V55.5079C0 58.9005 2.7598 61.6603 6.15234 61.6603H22.5586C25.9511 61.6603 28.7109 58.9005 28.7109 55.5079V53.218C26.1023 55.8884 22.4755 57.5587 18.457 57.5587Z" fill="#742A2C"/>
</g>
<defs>
<clipPath id="clip0_260_439">
<rect width="70" height="70" fill="white"/>
</clipPath>
</defs>
</svg>
