<svg width="64" height="68" viewBox="0 0 64 68" fill="none" xmlns="http://www.w3.org/2000/svg">
<path fill-rule="evenodd" clip-rule="evenodd" d="M61.9676 39.4885C62.5521 39.4885 63.0259 39.9461 63.0259 40.5105C63.0259 41.075 62.5521 41.5326 61.9676 41.5326H54.4547C54.3618 41.5326 54.286 41.6054 54.2855 41.6951L54.2369 49.7689C54.2347 50.0754 54.1978 50.3225 53.9304 50.5807L49.6781 54.6877C49.6268 54.7372 49.6137 54.8088 49.6443 54.8723C50.6787 57.0182 49.0634 59.5348 46.5608 59.5348C43.5416 59.5348 42.0241 55.9935 44.1581 53.9325C45.1819 52.9437 46.7179 52.7047 47.9906 53.2749C48.0563 53.3044 48.1304 53.2917 48.1816 53.2423L52.0813 49.4759C52.114 49.4443 52.1306 49.4059 52.1309 49.3613L52.177 41.6972C52.1776 41.6059 52.1022 41.5327 52.0076 41.5327H41.537C41.4441 41.5327 41.3683 41.6056 41.3677 41.6952L41.2542 60.5805C41.252 60.8872 41.2151 61.1341 40.9477 61.3923L39.5345 62.7572C39.4832 62.8068 39.4701 62.8784 39.5007 62.942C40.5351 65.0874 38.9199 67.6045 36.4171 67.6045C33.398 67.6045 31.8802 64.0634 34.0143 62.0022C35.0382 61.0134 36.5741 60.7744 37.8469 61.3446C37.9125 61.3741 37.9865 61.3614 38.0378 61.312L39.0986 60.2875C39.1313 60.256 39.1478 60.2176 39.1482 60.1729L39.2593 41.6972C39.2597 41.6059 39.1845 41.5327 39.0899 41.5327H32.7402C32.6469 41.5327 32.5709 41.6062 32.5709 41.6963V51.3833C32.5709 51.4532 32.6141 51.5128 32.6821 51.5369C34.9836 52.3479 35.6857 55.2297 33.9152 56.9397C31.7794 59.0025 28.1146 57.5328 28.1146 54.6192C28.1146 53.2213 29.0261 52.0031 30.3433 51.5369C30.4113 51.5128 30.4544 51.4534 30.4544 51.3834V41.6961C30.4544 41.606 30.3783 41.5326 30.285 41.5326H23.9353C23.8408 41.5326 23.7655 41.6057 23.766 41.697L23.8771 60.1727C23.8774 60.2174 23.894 60.2558 23.9266 60.2874L24.9874 61.3119C25.0387 61.3614 25.1129 61.3741 25.1785 61.3445C27.4004 60.3453 30.0063 61.9057 30.0063 64.3227C30.0063 67.2384 26.3398 68.7045 24.2057 66.6431C23.182 65.6543 22.9345 64.1709 23.525 62.9417C23.5554 62.8782 23.5423 62.8068 23.4912 62.7572L22.0779 61.3922C21.8105 61.134 21.7736 60.887 21.7714 60.5803L21.6579 41.6951C21.6572 41.6053 21.5815 41.5326 21.4885 41.5326H11.0198C10.9253 41.5326 10.85 41.6057 10.8505 41.697L10.8948 49.3613C10.8951 49.4061 10.9117 49.4443 10.9444 49.4761L14.844 53.2423C14.8953 53.2919 14.9695 53.3045 15.0351 53.2749C17.257 52.2759 19.8629 53.8363 19.8629 56.2531C19.8629 59.1688 16.1964 60.6349 14.0623 58.5736C13.0384 57.5848 12.7911 56.1013 13.3816 54.8721C13.412 54.8087 13.3989 54.7372 13.3478 54.6877L9.09544 50.5807C8.82808 50.3225 8.79115 50.0754 8.78894 49.7687L8.74222 41.6952C8.74175 41.6054 8.66583 41.5326 8.57287 41.5326H1.05823C0.473798 41.5326 0 41.075 0 40.5105C0 39.9461 0.473798 39.4885 1.05823 39.4885H61.9676ZM21.9077 9.96304C21.9077 9.37999 22.3971 8.90731 23.001 8.90731C23.6047 8.90731 24.0941 9.37999 24.0941 9.96304V19.4522C24.0941 19.5423 24.1702 19.6157 24.2634 19.6157H27.929C28.0223 19.6157 28.0983 19.6892 28.0983 19.7793V37.5194C28.0983 37.6095 28.0223 37.6829 27.929 37.6829H18.0728C17.9795 37.6829 17.9035 37.6095 17.9035 37.5194V20.88C17.9035 20.1867 18.4947 19.6157 19.2125 19.6157H21.7382C21.8315 19.6157 21.9076 19.5423 21.9076 19.4522V9.96304H21.9077ZM47.3088 22.7686V37.5192C47.3088 37.6093 47.3849 37.6828 47.4781 37.6828H52.6913C52.7846 37.6828 52.8607 37.6093 52.8607 37.5192V23.7913C52.8607 23.141 52.3056 22.6051 51.6325 22.6051H47.4783C47.3849 22.6051 47.3088 22.6785 47.3088 22.7686ZM30.2847 11.1799V37.5192C30.2847 37.6093 30.3608 37.6828 30.4541 37.6828H44.9532C45.0465 37.6828 45.1226 37.6093 45.1226 37.5192V11.1799C45.1226 10.3049 44.3773 9.58532 43.4714 9.58532H31.9361C31.0298 9.58517 30.2847 10.3049 30.2847 11.1799ZM33.902 15.9342V13.6723C33.902 13.0892 34.3915 12.6164 34.9952 12.6164C35.5989 12.6164 36.0884 13.0891 36.0884 13.6723V15.9342C36.0884 16.5173 35.5989 16.99 34.9952 16.99C34.3915 16.99 33.902 16.5173 33.902 15.9342ZM33.902 30.9209V28.659C33.902 28.076 34.3915 27.6033 34.9952 27.6033C35.5989 27.6033 36.0884 28.076 36.0884 28.659V30.9209C36.0884 31.504 35.5989 31.9768 34.9952 31.9768C34.3915 31.9768 33.902 31.5041 33.902 30.9209ZM39.3186 28.6592C39.3186 28.0761 39.808 27.6034 40.4117 27.6034C41.0154 27.6034 41.5048 28.0761 41.5048 28.6592V30.9211C41.5048 31.5041 41.0154 31.977 40.4117 31.977C39.808 31.977 39.3186 31.5043 39.3186 30.9211V28.6592ZM39.3186 21.1657C39.3186 20.5826 39.808 20.1099 40.4117 20.1099C41.0154 20.1099 41.5048 20.5826 41.5048 21.1657V23.4276C41.5048 24.0106 41.0154 24.4833 40.4117 24.4833C39.808 24.4833 39.3186 24.0106 39.3186 23.4276V21.1657ZM33.902 23.4276V21.1657C33.902 20.5826 34.3915 20.1099 34.9952 20.1099C35.5989 20.1099 36.0884 20.5826 36.0884 21.1657V23.4276C36.0884 24.0106 35.5989 24.4833 34.9952 24.4833C34.3915 24.4835 33.902 24.0106 33.902 23.4276ZM39.3186 13.6723C39.3186 13.0892 39.808 12.6164 40.4117 12.6164C41.0154 12.6164 41.5048 13.0891 41.5048 13.6723V15.9342C41.5048 16.5173 41.0154 16.99 40.4117 16.99C39.808 16.99 39.3186 16.5173 39.3186 15.9342V13.6723ZM15.6611 30.9371L13.0545 28.6714C12.9898 28.6151 12.8926 28.6151 12.8281 28.6714L10.2214 30.9371C10.1844 30.9693 10.1654 31.0106 10.1654 31.0586V37.5192C10.1654 37.6093 10.2414 37.6828 10.3347 37.6828L15.5479 37.6829C15.6412 37.6829 15.7172 37.6095 15.7172 37.5194V31.0586C15.7171 31.0104 15.698 30.9691 15.6611 30.9371ZM16.9603 4.52796C16.5335 4.94029 15.8413 4.94029 15.4145 4.52796C14.9876 4.11579 14.9876 3.44723 15.4145 3.03505C19.6049 -1.01168 26.397 -1.01168 30.5873 3.03505C31.0142 3.44738 31.0142 4.11579 30.5873 4.52796C30.1605 4.94029 29.4683 4.94029 29.0415 4.52796C25.7057 1.30618 20.2963 1.30618 16.9603 4.52796ZM19.9172 7.38376C21.62 5.73903 24.3817 5.73903 26.0848 7.38376C26.5117 7.79593 27.2038 7.79593 27.6305 7.38376C28.0575 6.97143 28.0575 6.30302 27.6305 5.89085C25.0734 3.42116 20.9281 3.42131 18.3713 5.89085C17.9445 6.30317 17.9445 6.97158 18.3713 7.38376C18.7982 7.79593 19.4903 7.79593 19.9172 7.38376Z" fill="#742A2C"/>
</svg>
