<svg width="60" height="60" viewBox="0 0 60 60" fill="none" xmlns="http://www.w3.org/2000/svg">
<g clip-path="url(#clip0_260_626)">
<path d="M59.5061 17.1375L30.506 0.13747C30.201 -0.040538 29.826 -0.0465145 29.5171 0.124462L0.517031 16.1245C0.198047 16.2995 0 16.6355 0 16.9995V58.9995C0 59.5525 0.448008 59.9994 0.999961 59.9994H6C6.55195 59.9994 6.99996 59.5525 6.99996 58.9995V23.9995H52.9999V58.9996C52.9999 59.5526 53.4469 59.9995 53.9999 59.9995H58.9999C59.5529 59.9995 59.9999 59.5526 59.9999 58.9996V17.9995C60 17.6445 59.812 17.3165 59.5061 17.1375ZM58 57.9995H55V22.9995C55 22.4475 54.553 21.9995 54 21.9995H6C5.44805 21.9995 5.00004 22.4475 5.00004 22.9995V57.9995H2.00004V17.5895L29.985 2.14946L58 18.5725V57.9995Z" fill="#742A2C"/>
<path d="M50 45.9995H38C37.447 45.9995 37 46.4465 37 46.9995V58.9995C37 59.5525 37.447 59.9994 38 59.9994H50C50.553 59.9994 50.9999 59.5525 50.9999 58.9995V46.9995C50.9999 46.4465 50.553 45.9995 50 45.9995ZM48.9999 57.9995H38.9999V47.9995H48.9999V57.9995Z" fill="#742A2C"/>
<path d="M45.0001 46.9995V49.9995H43V46.9995H41V50.9995C41 51.5525 41.447 51.9994 42 51.9994H45.9999C46.5529 51.9994 46.9999 51.5525 46.9999 50.9995V46.9995H45.0001Z" fill="#742A2C"/>
<path d="M38 45.9995H26C25.448 45.9995 25 46.4465 25 46.9995V58.9995C25 59.5525 25.448 59.9994 26 59.9994H38C38.553 59.9994 38.9999 59.5525 38.9999 58.9995V46.9995C38.9999 46.4465 38.553 45.9995 38 45.9995ZM36.9999 57.9995H26.9999V47.9995H36.9999V57.9995Z" fill="#742A2C"/>
<path d="M33.0001 46.9995V49.9995H31V46.9995H29V50.9995C29 51.5525 29.448 51.9994 30 51.9994H33.9999C34.5529 51.9994 34.9999 51.5525 34.9999 50.9995V46.9995H33.0001Z" fill="#742A2C"/>
<path d="M50 33.9995H38C37.447 33.9995 37 34.4465 37 34.9995V46.9995C37 47.5525 37.447 47.9994 38 47.9994H50C50.553 47.9994 50.9999 47.5525 50.9999 46.9995V34.9995C50.9999 34.4465 50.553 33.9995 50 33.9995ZM48.9999 45.9995H38.9999V35.9995H48.9999V45.9995Z" fill="#742A2C"/>
<path d="M45.0001 34.9995V37.9995H43V34.9995H41V38.9995C41 39.5525 41.447 39.9994 42 39.9994H45.9999C46.5529 39.9994 46.9999 39.5525 46.9999 38.9995V34.9995H45.0001Z" fill="#742A2C"/>
<path d="M54 30H6V32H54V30Z" fill="#742A2C"/>
<path d="M54 25.9995H6V27.9996H54V25.9995Z" fill="#742A2C"/>
<path d="M34.9999 13.9995H25C24.448 13.9995 24 14.4475 24 14.9995V18.9994C24 19.5514 24.448 19.9994 25 19.9994H34.9999C35.5529 19.9994 35.9999 19.5514 35.9999 18.9994V14.9995C35.9999 14.4475 35.5529 13.9995 34.9999 13.9995ZM33.9998 17.9996H25.9998V15.9996H33.9998V17.9996Z" fill="#742A2C"/>
</g>
<defs>
<clipPath id="clip0_260_626">
<rect width="60" height="60" fill="white"/>
</clipPath>
</defs>
</svg>
