<svg width="70" height="70" viewBox="0 0 70 70" fill="none" xmlns="http://www.w3.org/2000/svg">
<path d="M35.4041 39.0645C33.0594 41.9014 27.0725 41.9014 24.7277 39.0645C22.8369 41.3504 18.7668 41.7113 16.0735 40.5328V58.767H19.9754V45.2031C19.9754 44.6727 20.4061 44.2461 20.9324 44.2461H31.9697C32.5002 44.2461 32.9268 44.6727 32.9268 45.2031V58.767H54.7348V40.5328C52.0414 41.7113 47.9727 41.3504 46.0805 39.0645C43.7371 41.9014 37.7488 41.9014 35.4041 39.0645ZM25.6848 36.3355C25.6848 40.2621 34.4471 40.2621 34.4471 36.3355V33.7898H25.6848V36.3355ZM36.3611 33.7898V36.3355C36.3611 40.2621 45.1235 40.2621 45.1235 36.3355V33.7898H36.3611ZM57.5184 32.2477C57.6428 32.4104 57.7194 32.6113 57.7194 32.8328V36.3369C57.7194 37.4963 57.3119 38.4492 56.6502 39.193V59.7254C56.6502 60.2559 56.2195 60.6824 55.6932 60.6824C42.1676 60.6824 28.642 60.6824 15.1164 60.6824C14.5901 60.6824 14.1594 60.2559 14.1594 59.7254V39.1916C13.4922 38.4479 13.0902 37.4936 13.0902 36.3355V32.8123C13.0943 32.5881 13.1682 32.4254 13.2912 32.2463L20.1463 21.5002C20.3281 21.2172 20.6344 21.0627 20.9488 21.0586V21.0545H30.6108C28.9168 18.3379 26.8168 14.4004 26.8168 11.5252C26.8168 6.92051 30.5492 3.18945 35.1525 3.18945C39.7559 3.18945 43.4883 6.92188 43.4883 11.5252C43.4883 14.4004 41.3883 18.3379 39.6943 21.0545H49.8594C50.2272 21.0545 50.5498 21.2678 50.7084 21.574L57.5184 32.2477ZM47.0389 33.7898V36.3355C47.0389 40.2621 55.8053 40.2621 55.8053 36.3355V33.7898H47.0389ZM60.7736 62.5459C60.7818 62.0195 61.2152 61.5971 61.743 61.6039C62.2694 61.6148 62.6891 62.0455 62.6809 62.5732L62.6385 64.9727C62.6535 65.5387 62.2748 65.9611 61.7279 65.9953L59.3682 66.1895C58.8404 66.2277 58.3797 65.8367 58.3373 65.3104C58.299 64.7826 58.6901 64.3219 59.2164 64.2836L59.55 64.2563L57.2326 61.9389C56.8608 61.567 56.8608 60.9586 57.2326 60.5867C57.6086 60.2148 58.2129 60.2148 58.5848 60.5867L60.7709 62.7729L60.7736 62.5459ZM11.9541 64.6897C12.4777 64.6814 12.9111 65.1039 12.9152 65.6316C12.9235 66.1553 12.501 66.5887 11.9733 66.5969L9.57794 66.6242C9.00373 66.6557 8.57443 66.2838 8.52794 65.7246L8.26818 63.3881C8.20939 62.8645 8.58947 62.3928 9.1131 62.334C9.64083 62.2752 10.1098 62.6553 10.1672 63.1789L10.2137 63.5891L12.6199 61.1828C12.9959 60.8068 13.6002 60.8068 13.9721 61.1828C14.3481 61.5547 14.3481 62.1631 13.9721 62.535L11.8174 64.6897H11.9541ZM11.4113 21.5084C11.3963 22.0361 10.9547 22.4504 10.427 22.4313C9.90333 22.4162 9.48908 21.9746 9.50412 21.451L9.58888 19.0447C9.58478 18.4746 9.9758 18.0645 10.5391 18.0453L12.8797 17.8936C13.4074 17.8621 13.86 18.2613 13.8955 18.7891C13.927 19.3154 13.5277 19.7693 13 19.8008L12.7129 19.8199L16.3483 23.4553C16.7242 23.8271 16.7242 24.4355 16.3483 24.8074C15.9764 25.1793 15.3721 25.1793 14.9961 24.8074L11.4223 21.2336L11.4113 21.5084ZM57.6182 19.958C57.0877 19.958 56.6611 19.5273 56.6611 19.001C56.6611 18.4746 57.0877 18.0439 57.6182 18.0439H60.0942C60.6246 18.0439 61.0197 18.4432 61.0512 18.9818L61.2836 21.2992C61.3342 21.8229 60.95 22.2877 60.4277 22.341C59.9014 22.3916 59.4352 22.0074 59.3818 21.4852L59.3463 21.1051L55.6412 24.8061C55.2693 25.1779 54.6651 25.1779 54.2891 24.8061C53.9172 24.4342 53.9172 23.8258 54.2891 23.4539L57.785 19.958H57.6182ZM58.8856 44.7615C58.3578 44.7615 57.9285 44.3309 57.9285 43.8045C57.9285 43.274 58.3592 42.8475 58.8856 42.8475H62.8887L62.7957 42.7586C62.4197 42.3908 62.4115 41.7865 62.7807 41.4064C63.1443 41.0305 63.75 41.0223 64.1287 41.3873L65.8568 43.073C66.2834 43.4531 66.3176 44.0232 65.9457 44.4566L64.4801 46.2777C64.1506 46.6879 63.5504 46.7549 63.1389 46.4254C62.7287 46.0959 62.6617 45.4957 62.9912 45.0842L63.251 44.7629H58.8856V44.7615ZM7.95783 44.9625C8.31876 45.3467 8.29826 45.951 7.91544 46.3106C7.53126 46.6715 6.92697 46.651 6.5674 46.2682L4.9131 44.5045C4.50568 44.0971 4.50294 43.5283 4.9049 43.11L6.44298 41.3654C6.79162 40.9744 7.39181 40.9348 7.7883 41.2834C8.18478 41.632 8.21896 42.2363 7.87033 42.6287L7.68029 42.8461H11.8584C12.3889 42.8461 12.8154 43.2727 12.8154 43.8031C12.8154 44.3295 12.3889 44.7602 11.8584 44.7602H7.76779L7.95783 44.9625ZM35.1525 7.24316C37.6285 7.24316 39.6328 9.2502 39.6328 11.7234C39.6328 14.1994 37.6285 16.2037 35.1525 16.2037C32.6807 16.2037 30.6723 14.2008 30.6723 11.7234C30.6723 9.2502 32.6793 7.24316 35.1525 7.24316ZM36.9668 9.90918C35.3549 8.29727 32.5877 9.44434 32.5877 11.7234C32.5877 14.0025 35.3549 15.1496 36.9668 13.5377C37.9703 12.5369 37.9703 10.9086 36.9668 9.90918ZM38.4434 22.9699C37.835 23.8613 37.2416 24.6748 36.707 25.3652C36.6059 25.4965 36.4897 25.6127 36.3625 25.7139V31.8758H44.6244L40.7567 22.9699H38.4434ZM34.4471 25.9969C34.1094 25.8684 33.8236 25.6564 33.5981 25.3652C33.0676 24.6748 32.4701 23.8613 31.8617 22.9699H30.0516L26.1797 31.8758H34.4457V25.9969H34.4471ZM39.6943 6.9834C37.1869 4.47598 33.1182 4.47598 30.6108 6.9834C29.4486 8.14551 28.7309 9.75469 28.7309 11.5252C28.7309 15.0525 32.9049 21.3457 35.1102 24.1977C35.1375 24.2318 35.1799 24.2168 35.1949 24.1977C37.567 21.1707 41.5742 14.924 41.5742 11.5252C41.5742 9.75469 40.8578 8.14551 39.6943 6.9834ZM27.8627 49.4742C27.8627 48.9479 28.2893 48.5172 28.8197 48.5172C29.3461 48.5172 29.7727 48.9479 29.7727 49.4742V52.0281C29.7727 52.5559 29.3461 52.9852 28.8197 52.9852C28.2893 52.9852 27.8627 52.5545 27.8627 52.0281V49.4742ZM39.1475 43.2002H50.5033C51.8172 43.2002 52.8863 44.2693 52.8863 45.5832V49.1529C52.8863 50.4668 51.8172 51.5359 50.5033 51.5359H39.1475C37.8336 51.5359 36.7645 50.4668 36.7645 49.1529V45.5832C36.7645 44.2693 37.8336 43.2002 39.1475 43.2002ZM50.5033 45.1143H39.1475C38.8918 45.1143 38.6785 45.3275 38.6785 45.5832V49.1529C38.6785 49.4086 38.8918 49.6219 39.1475 49.6219H50.5033C50.759 49.6219 50.9764 49.4086 50.9764 49.1529V45.5832C50.9764 45.3275 50.759 45.1143 50.5033 45.1143ZM31.0141 46.1602H21.8908V58.767H31.0141V46.1602ZM15.0043 33.7898V36.3355C15.0043 40.2621 23.7707 40.2621 23.7707 36.3355V33.7898H15.0043ZM24.0988 31.8758L27.9707 22.9699H21.467L15.785 31.8758H24.0988ZM42.8375 22.9699L46.7053 31.8758H55.0178L49.3399 22.9699H42.8375Z" fill="#742A2C"/>
</svg>
