<svg width="70" height="70" viewBox="0 0 70 70" fill="none" xmlns="http://www.w3.org/2000/svg">
<g clip-path="url(#clip0_260_492)">
<path fill-rule="evenodd" clip-rule="evenodd" d="M50 22.5H52.5V27.5H50V22.5Z" fill="#742A2C"/>
<path fill-rule="evenodd" clip-rule="evenodd" d="M42.5 30H60V32.5H42.5V30Z" fill="#742A2C"/>
<path fill-rule="evenodd" clip-rule="evenodd" d="M50.4112 40.0712C51.085 40.3086 51.7474 40.5399 52.5 40.735V35H50V39.9275L50.4112 40.0712Z" fill="#742A2C"/>
<path fill-rule="evenodd" clip-rule="evenodd" d="M39.64 0.382486C39.4086 0.137907 39.0867 -0.000458163 38.75 1.13986e-06C38.0597 1.13986e-06 37.5 0.559662 37.5 1.24999V40.02C38.3053 39.6502 39.1419 39.3528 40 39.1313V1.24999C40.0033 0.92389 39.8733 0.61053 39.64 0.382486Z" fill="#742A2C"/>
<path fill-rule="evenodd" clip-rule="evenodd" d="M65 1.24999C65.0033 0.92389 64.8732 0.61053 64.64 0.382486C64.4086 0.137907 64.0867 -0.000458163 63.75 1.13986e-06C63.0597 1.13986e-06 62.5 0.559662 62.5 1.24999V40.5C62.9275 40.3649 63.3363 40.2212 63.75 40.0763C64.1637 39.9313 64.565 39.79 65 39.65V1.24999Z" fill="#742A2C"/>
<path fill-rule="evenodd" clip-rule="evenodd" d="M35.0013 5H30.3538C30.2151 5.4337 30.0714 5.84374 29.9301 6.24999C29.7889 6.65625 29.6389 7.07502 29.5039 7.49999H35.0014V5H35.0013Z" fill="#742A2C"/>
<path fill-rule="evenodd" clip-rule="evenodd" d="M68.75 5H67.5V7.49999H68.75C69.0758 7.5024 69.3887 7.37311 69.6175 7.14127C69.8624 6.90967 70.0008 6.58712 70 6.24999C70 5.55966 69.4403 5 68.75 5Z" fill="#742A2C"/>
<path fill-rule="evenodd" clip-rule="evenodd" d="M42.5 17.5H60V20H42.5V17.5Z" fill="#742A2C"/>
<path fill-rule="evenodd" clip-rule="evenodd" d="M52.14 0.382486C51.9086 0.137907 51.5867 -0.000458163 51.25 1.13986e-06C50.5597 1.13986e-06 50 0.559662 50 1.24999V2.49999H52.5V1.24999C52.5033 0.92389 52.3732 0.61053 52.14 0.382486Z" fill="#742A2C"/>
<path fill-rule="evenodd" clip-rule="evenodd" d="M50 10H52.5V15H50V10Z" fill="#742A2C"/>
<path fill-rule="evenodd" clip-rule="evenodd" d="M42.5 5H60V7.49999H42.5V5Z" fill="#742A2C"/>
<path d="M69.0437 42.1713C68.4455 41.6959 67.6617 41.5225 66.9188 41.7013C66.1292 41.9016 65.351 42.1439 64.5876 42.4276C62.1992 43.3583 59.6503 43.8078 57.0876 43.75C54.525 43.8078 51.9763 43.3587 49.5876 42.4287C47.4626 41.595 45.1922 41.1942 42.9102 41.2499C40.583 41.3732 38.3314 42.1173 36.3889 43.405C33.6638 44.9049 30.5739 46.6125 26.9814 43.0174C23.389 39.4223 25.0914 36.33 26.5952 33.6049C27.8829 31.6612 28.627 29.4083 28.7502 27.0799C28.8051 24.8008 28.4044 22.5335 27.5714 20.4112C26.6418 18.0225 26.1928 15.4738 26.2501 12.9112C26.1929 10.3487 26.6419 7.8 27.5714 5.41128C27.855 4.64987 28.0974 3.87376 28.2977 3.08629C28.475 2.34095 28.3016 1.55543 27.827 0.953858C27.3523 0.3524 26.6287 0.00103343 25.8624 0H3.74998C1.67898 0 0 1.67898 0 3.74998V66.2499C0 68.321 1.67898 69.9999 3.74998 69.9999H66.2499C68.321 69.9999 69.9999 68.3209 69.9999 66.2499V44.1374C70.0014 43.3697 69.6485 42.6441 69.0437 42.1713ZM8.74996 53.75C9.44029 53.75 9.99995 54.3096 9.99995 55C9.99995 55.6903 9.44029 56.25 8.74996 56.25C8.05962 56.25 7.49996 55.6903 7.49996 55C7.49996 54.3096 8.05962 53.75 8.74996 53.75ZM7.49996 66.25C5.42885 66.25 3.74998 64.571 3.74998 62.5C3.74998 60.4289 5.42897 58.7501 7.49996 58.7501C9.57096 58.7501 11.2499 60.429 11.2499 62.5C11.2499 64.571 9.57108 66.25 7.49996 66.25ZM17.5 16.25C16.8097 16.25 16.25 15.6904 16.25 15C16.25 14.3097 16.8097 13.75 17.5 13.75C18.1904 13.75 18.75 14.3097 18.75 15C18.75 15.6904 18.1904 16.25 17.5 16.25ZM20 11.2499C17.9289 11.2499 16.25 9.57096 16.25 7.49996C16.25 5.42897 17.929 3.74998 20 3.74998C22.071 3.74998 23.75 5.42897 23.75 7.49996C23.75 9.57096 22.071 11.2499 20 11.2499ZM57.0187 48.4862C56.6202 48.7982 56.0728 48.8391 55.6324 48.5897C55.1919 48.3403 54.9453 47.85 55.0078 47.3477C55.0702 46.8455 55.4293 46.4304 55.9174 46.2965C56.4055 46.1625 56.9262 46.3361 57.2362 46.7362C57.6577 47.28 57.5605 48.0622 57.0187 48.4862ZM59.5187 60.9862C59.1201 61.2982 58.5728 61.339 58.1324 61.0896C57.6921 60.8402 57.4453 60.3499 57.5078 59.8477C57.5702 59.3454 57.9293 58.9303 58.4174 58.7964C58.9055 58.6624 59.4261 58.8361 59.7362 59.2361C60.1577 59.78 60.0604 60.5621 59.5187 60.9862ZM65 48.75C64.3097 48.75 63.75 48.1903 63.75 47.5C63.75 46.8097 64.3097 46.25 65 46.25C65.6904 46.25 66.25 46.8097 66.25 47.5C66.25 48.1903 65.6904 48.75 65 48.75Z" fill="#742A2C"/>
<path fill-rule="evenodd" clip-rule="evenodd" d="M68.75 30H67.5V32.5H68.75C69.0758 32.5024 69.3887 32.3731 69.6175 32.1413C69.8624 31.9097 70.0008 31.5871 70 31.25C70 30.5597 69.4403 30 68.75 30Z" fill="#742A2C"/>
<path d="M20 8.74999C20.6903 8.74999 21.25 8.19035 21.25 7.49999C21.25 6.80964 20.6903 6.25 20 6.25C19.3096 6.25 18.75 6.80964 18.75 7.49999C18.75 8.19035 19.3096 8.74999 20 8.74999Z" fill="#742A2C"/>
<path fill-rule="evenodd" clip-rule="evenodd" d="M68.75 17.5H67.5V20H68.75C69.0758 20.0024 69.3887 19.8731 69.6175 19.6413C69.8624 19.4097 70.0008 19.0871 70 18.75C70 18.0597 69.4403 17.5 68.75 17.5Z" fill="#742A2C"/>
<path d="M7.49999 63.75C8.19035 63.75 8.74999 63.1903 8.74999 62.5C8.74999 61.8096 8.19035 61.25 7.49999 61.25C6.80964 61.25 6.25 61.8096 6.25 62.5C6.25 63.1903 6.80964 63.75 7.49999 63.75Z" fill="#742A2C"/>
<path fill-rule="evenodd" clip-rule="evenodd" d="M35.0003 32.5V30H30.8678C30.645 30.858 30.3468 31.6946 29.9766 32.5H35.0003Z" fill="#742A2C"/>
<path fill-rule="evenodd" clip-rule="evenodd" d="M29.9307 19.5787C29.9795 19.7174 30.0282 19.8599 30.0782 20H35.002V17.5H29.2695C29.4631 18.2499 29.6944 18.9087 29.9307 19.5787Z" fill="#742A2C"/>
</g>
<defs>
<clipPath id="clip0_260_492">
<rect width="70" height="70" fill="white"/>
</clipPath>
</defs>
</svg>
