<svg width="70" height="70" viewBox="0 0 70 70" fill="none" xmlns="http://www.w3.org/2000/svg">
<path d="M62.9435 63.4847H61.4588V22.2012C62.5779 22.0332 63.4396 21.068 63.4396 19.9029V17.5801C63.4396 16.2971 62.3957 15.2531 61.1126 15.2531H56.9139C56.3472 15.2531 55.8879 15.7124 55.8879 16.2791C55.8879 16.8459 56.3472 17.3052 56.9139 17.3052H61.1126C61.2642 17.3052 61.3876 17.4284 61.3876 17.5801V19.9029C61.3876 20.0545 61.2644 20.1779 61.1126 20.1779H8.75078C8.59921 20.1779 8.47595 20.0546 8.47595 19.9029V17.5801C8.47595 17.4286 8.59921 17.3052 8.75078 17.3052H52.5416C53.1084 17.3052 53.5676 16.8459 53.5676 16.2791C53.5676 15.7124 53.1084 15.2531 52.5416 15.2531H36.0262V8.96271H46.7125C47.5541 8.96271 48.2389 8.27788 48.2389 7.43628V1.52644C48.2389 0.68483 47.5542 0 46.7125 0H35.5006C34.6589 0 33.9742 0.68483 33.9742 1.52644V6.72053V7.43614V15.253H8.75078C7.46772 15.253 6.42392 16.2969 6.42392 17.58V19.9028C6.42392 21.1152 7.35636 22.1128 8.54148 22.2191V32.2224C8.54148 32.7892 9.00086 33.2485 9.56749 33.2485C10.1341 33.2485 10.5935 32.7892 10.5935 32.2224V22.2298H59.4067V63.4847H51.448V59.3217C51.448 57.1886 49.7125 55.4533 47.5797 55.4533C45.4468 55.4533 43.7115 57.1888 43.7115 59.3217V63.4847H38.8003V59.3217C38.8003 57.1886 37.0648 55.4533 34.9319 55.4533C32.799 55.4533 31.0636 57.1888 31.0636 59.3217V63.4847H26.1524V59.3217C26.1524 57.1886 24.4171 55.4533 22.284 55.4533C20.151 55.4533 18.4157 57.1888 18.4157 59.3217V63.4847H10.5935V36.5949C10.5935 36.0281 10.1341 35.5689 9.56749 35.5689C9.00086 35.5689 8.54148 36.0281 8.54148 36.5949V63.4848H7.0569C6.12733 63.4848 5.37109 64.2411 5.37109 65.1706V68.3142C5.37109 69.2438 6.12733 70 7.0569 70H62.9435C63.873 70 64.6293 69.2438 64.6293 68.3142V65.1706C64.6293 64.2411 63.873 63.4847 62.9435 63.4847ZM36.0262 2.05203H46.1869V6.91068H36.0262V6.72053V2.05203ZM45.7635 59.3218C45.7635 58.3203 46.5783 57.5055 47.5797 57.5055C48.5812 57.5055 49.396 58.3203 49.396 59.3218V63.4848H45.7633V59.3218H45.7635ZM33.1155 59.3218C33.1155 58.3203 33.9303 57.5055 34.9318 57.5055C35.9333 57.5055 36.7481 58.3203 36.7481 59.3218V63.4848H33.1155V59.3218ZM20.4676 59.3218C20.4676 58.3203 21.2824 57.5055 22.2839 57.5055C23.2854 57.5055 24.1002 58.3203 24.1002 59.3218V63.4848H20.4676V59.3218ZM62.5772 67.948H7.42298V65.5367H62.5771L62.5772 67.948Z" fill="#742A2C"/>
<path d="M36.6913 43.696C37.6722 43.696 38.4703 42.8979 38.4703 41.9171V28.2853C38.4703 27.3044 37.6722 26.5063 36.6913 26.5063H33.1695C32.1886 26.5063 31.3906 27.3044 31.3906 28.2853V41.9171C31.3906 42.8979 32.1886 43.696 33.1695 43.696H36.6913ZM33.4425 28.5584H36.4181V41.644H33.4425V28.5584Z" fill="#742A2C"/>
<path d="M27.3086 43.696C28.2895 43.696 29.0874 42.8979 29.0874 41.9171V28.2853C29.0874 27.3044 28.2895 26.5063 27.3086 26.5063H23.7868C22.8059 26.5063 22.0078 27.3044 22.0078 28.2853V41.9171C22.0078 42.8979 22.8058 43.696 23.7868 43.696H27.3086ZM24.0598 28.5584H27.0354V41.644H24.0598V28.5584Z" fill="#742A2C"/>
<path d="M17.9219 26.5063H14.4001C13.4192 26.5063 12.6211 27.3044 12.6211 28.2853V41.9171C12.6211 42.8979 13.4191 43.696 14.4001 43.696H17.9219C18.9028 43.696 19.7007 42.8979 19.7007 41.9171V28.2853C19.7009 27.3044 18.9028 26.5063 17.9219 26.5063ZM17.6488 41.644H14.6733V28.5584H17.6488V41.644Z" fill="#742A2C"/>
<path d="M46.0781 43.696C47.059 43.696 47.857 42.8979 47.857 41.9171V28.2853C47.857 27.3044 47.059 26.5063 46.0781 26.5063H42.5563C41.5754 26.5063 40.7773 27.3044 40.7773 28.2853V41.9171C40.7773 42.8979 41.5754 43.696 42.5563 43.696H46.0781ZM42.8294 28.5584H45.8049V41.644H42.8294V28.5584Z" fill="#742A2C"/>
<path d="M51.943 43.696H55.4649C56.4457 43.696 57.2438 42.8979 57.2438 41.9171V28.2853C57.2438 27.3044 56.4457 26.5063 55.4649 26.5063H51.943C50.9622 26.5063 50.1641 27.3044 50.1641 28.2853V41.9171C50.1641 42.8979 50.9622 43.696 51.943 43.696ZM52.2161 28.5584H55.1918V41.644H52.2161V28.5584Z" fill="#742A2C"/>
<path d="M13.9102 48.9728V51.354C13.9102 52.3273 14.7021 53.1193 15.6756 53.1193H54.3221C55.2955 53.1193 56.0874 52.3273 56.0874 51.354V48.9728C56.0874 47.9995 55.2955 47.2075 54.3221 47.2075H50.4207C49.8539 47.2075 49.3946 47.6668 49.3946 48.2335C49.3946 48.8003 49.8539 49.2595 50.4207 49.2595H54.0354V51.0674H15.9622V49.2595H46.0481C46.6148 49.2595 47.0741 48.8003 47.0741 48.2335C47.0741 47.6668 46.6148 47.2075 46.0481 47.2075H15.6754C14.7021 47.2075 13.9102 47.9995 13.9102 48.9728Z" fill="#742A2C"/>
</svg>
