<svg width="70" height="70" viewBox="0 0 70 70" fill="none" xmlns="http://www.w3.org/2000/svg">
<path d="M66.7565 54.5781H66.0274V24.6167H66.7565C67.3367 24.6167 67.8931 24.3862 68.3033 23.976C68.7135 23.5657 68.944 23.0093 68.944 22.4292C68.944 21.849 68.7135 21.2926 68.3033 20.8824C67.8931 20.4721 67.3367 20.2417 66.7565 20.2417H49.9273V15.4219H49.9857C50.5658 15.4219 51.1222 15.1914 51.5325 14.7812C51.9427 14.3709 52.1732 13.8145 52.1732 13.2344C52.1732 12.6542 51.9427 12.0978 51.5325 11.6876C51.1222 11.2773 50.5658 11.0469 49.9857 11.0469H20.0898C19.5097 11.0469 18.9533 11.2773 18.543 11.6876C18.1328 12.0978 17.9023 12.6542 17.9023 13.2344C17.9023 13.8145 18.1328 14.3709 18.543 14.7812C18.9533 15.1914 19.5097 15.4219 20.0898 15.4219H20.1482V20.2417H3.24609C2.66593 20.2417 2.10953 20.4721 1.6993 20.8824C1.28906 21.2926 1.05859 21.849 1.05859 22.4292C1.05859 23.0093 1.28906 23.5657 1.6993 23.976C2.10953 24.3862 2.66593 24.6167 3.24609 24.6167H3.97526V54.5781H3.24609C2.66593 54.5781 2.10953 54.8086 1.6993 55.2188C1.28906 55.6291 1.05859 56.1855 1.05859 56.7656C1.05859 57.3458 1.28906 57.9022 1.6993 58.3124C2.10953 58.7227 2.66593 58.9531 3.24609 58.9531H66.7565C67.3367 58.9531 67.8931 58.7227 68.3033 58.3124C68.7135 57.9022 68.944 57.3458 68.944 56.7656C68.944 56.1855 68.7135 55.6291 68.3033 55.2188C67.8931 54.8086 67.3367 54.5781 66.7565 54.5781ZM52.0346 54.5781C52.2177 54.1092 52.2177 53.5887 52.0346 53.1198H64.569V54.5781H52.0346ZM30.5826 54.5781V44.1729C30.5826 44.1014 30.611 44.0327 30.6616 43.9821C30.7122 43.9315 30.7808 43.9031 30.8523 43.9031H34.2721V54.5781H30.5826ZM35.7305 43.9031H39.2159C39.2519 43.9021 39.2878 43.9084 39.3214 43.9215C39.3549 43.9347 39.3856 43.9544 39.4114 43.9795C39.4372 44.0047 39.4577 44.0347 39.4718 44.068C39.4858 44.1012 39.493 44.1369 39.493 44.1729V54.5781H35.7305V43.9031ZM39.2159 42.4448H35.0523H35.0013H34.9503H30.8523C30.394 42.4448 29.9545 42.6269 29.6304 42.9509C29.3063 43.275 29.1242 43.7146 29.1242 44.1729V54.5781H26.4482C26.538 54.3454 26.585 54.0984 26.5867 53.849C26.5876 53.2896 26.3742 52.7512 25.9904 52.3444C25.6066 51.9375 25.0816 51.6931 24.5232 51.6615V40.8333C24.5232 40.7405 24.5601 40.6515 24.6257 40.5858C24.6913 40.5202 24.7804 40.4833 24.8732 40.4833H45.2096C45.3019 40.4852 45.3898 40.5227 45.4551 40.5879C45.5203 40.6531 45.5578 40.7411 45.5596 40.8333V51.6906C45.034 51.7649 44.5534 52.0278 44.2072 52.4303C43.8611 52.8327 43.6732 53.3473 43.6784 53.8781C43.6812 54.1268 43.7256 54.3732 43.8096 54.6073H40.9513V44.1729C40.9494 43.7139 40.7657 43.2744 40.4404 42.9505C40.1152 42.6266 39.6749 42.4448 39.2159 42.4448ZM20.2576 53.1125H24.3846C24.578 53.1125 24.7635 53.1893 24.9002 53.3261C25.037 53.4628 25.1138 53.6483 25.1138 53.8417C25.1138 54.035 25.037 54.2205 24.9002 54.3573C24.7635 54.494 24.578 54.5708 24.3846 54.5708H20.2721C20.0787 54.5708 19.8933 54.494 19.7565 54.3573C19.6198 54.2205 19.543 54.035 19.543 53.8417C19.543 53.6483 19.6198 53.4628 19.7565 53.3261C19.8933 53.1893 20.0787 53.1125 20.2721 53.1125H20.2576ZM49.9711 53.1125C50.1645 53.1125 50.3499 53.1893 50.4867 53.3261C50.6234 53.4628 50.7003 53.6483 50.7003 53.8417C50.7003 54.035 50.6234 54.2205 50.4867 54.3573C50.3499 54.494 50.1645 54.5708 49.9711 54.5708H45.8586C45.6652 54.5708 45.4797 54.494 45.343 54.3573C45.2062 54.2205 45.1294 54.035 45.1294 53.8417C45.1294 53.6483 45.2062 53.4628 45.343 53.3261C45.4797 53.1893 45.6652 53.1125 45.8586 53.1125H49.9711ZM64.5544 51.6542H49.9273V24.6167H64.569L64.5544 51.6542ZM66.7419 21.7C66.9353 21.7 67.1208 21.7768 67.2575 21.9136C67.3943 22.0503 67.4711 22.2358 67.4711 22.4292C67.4711 22.6226 67.3943 22.808 67.2575 22.9448C67.1208 23.0815 66.9353 23.1583 66.7419 23.1583H49.9273V21.7H66.7419ZM19.3461 13.2344C19.3461 13.041 19.4229 12.8555 19.5597 12.7188C19.6964 12.582 19.8819 12.5052 20.0753 12.5052H49.9711C50.1645 12.5052 50.3499 12.582 50.4867 12.7188C50.6234 12.8555 50.7003 13.041 50.7003 13.2344C50.7003 13.4278 50.6234 13.6132 50.4867 13.75C50.3499 13.8867 50.1645 13.9635 49.9711 13.9635H20.0753C19.8844 13.9597 19.7027 13.8812 19.5691 13.7449C19.4355 13.6086 19.3606 13.4253 19.3607 13.2344H19.3461ZM48.4544 15.4219V51.6542H46.9961V40.8333C47 40.5949 46.9568 40.358 46.8691 40.1363C46.7814 39.9145 46.6509 39.7122 46.485 39.5409C46.3191 39.3696 46.1211 39.2326 45.9023 39.1378C45.6834 39.0431 45.4481 38.9923 45.2096 38.9885H24.8732C24.6329 38.9895 24.3952 39.0381 24.1738 39.1316C23.9525 39.2251 23.7519 39.3616 23.5836 39.5332C23.4154 39.7048 23.283 39.9081 23.1939 40.1313C23.1049 40.3544 23.061 40.5931 23.0648 40.8333V51.6542H21.6065V15.4219H48.4544ZM2.51693 22.4292C2.51693 22.2358 2.59375 22.0503 2.7305 21.9136C2.86724 21.7768 3.05271 21.7 3.24609 21.7H20.1482V23.1583H3.24609C3.05271 23.1583 2.86724 23.0815 2.7305 22.9448C2.59375 22.808 2.51693 22.6226 2.51693 22.4292ZM20.1482 24.6167V51.6542H5.43359V24.6167H20.1482ZM5.43359 53.1125H18.2305C18.0575 53.5832 18.0575 54.1001 18.2305 54.5708H5.43359V53.1125ZM66.7565 57.4875H3.24609C3.05271 57.4875 2.86724 57.4107 2.7305 57.2739C2.59375 57.1372 2.51693 56.9517 2.51693 56.7583C2.51693 56.5649 2.59375 56.3795 2.7305 56.2427C2.86724 56.106 3.05271 56.0292 3.24609 56.0292H66.7565C66.9499 56.0292 67.1354 56.106 67.2721 56.2427C67.4089 56.3795 67.4857 56.5649 67.4857 56.7583C67.4857 56.9517 67.4089 57.1372 67.2721 57.2739C67.1354 57.4107 66.9499 57.4875 66.7565 57.4875ZM9.00651 34.6646H16.6117C17.17 34.6627 17.7049 34.44 18.0997 34.0452C18.4945 33.6505 18.7171 33.1156 18.719 32.5573V28.1823C18.719 27.6227 18.4972 27.086 18.1022 26.6896C17.7073 26.2933 17.1713 26.0696 16.6117 26.0677H9.00651C8.44569 26.0677 7.90784 26.2905 7.51127 26.6871C7.11471 27.0836 6.89193 27.6215 6.89193 28.1823V32.5573C6.89386 33.1168 7.11749 33.6528 7.51385 34.0478C7.9102 34.4428 8.44695 34.6646 9.00651 34.6646ZM17.2607 28.1896V32.5646C17.2607 32.7367 17.1923 32.9018 17.0706 33.0235C16.9489 33.1452 16.7838 33.2135 16.6117 33.2135H13.5346V27.5333H16.6117C16.7845 27.5353 16.9496 27.6052 17.0711 27.7281C17.1925 27.851 17.2607 28.0168 17.2607 28.1896ZM8.35026 28.1896C8.35026 28.0155 8.4194 27.8486 8.54247 27.7255C8.66554 27.6025 8.83246 27.5333 9.00651 27.5333H12.0763V33.2062H9.00651C8.92068 33.2072 8.8355 33.1911 8.75593 33.159C8.67635 33.1268 8.60394 33.0791 8.54291 33.0188C8.48187 32.9584 8.43342 32.8865 8.40035 32.8073C8.36728 32.7281 8.35026 32.6431 8.35026 32.5573V28.1896ZM9.00651 47.4542H16.6117C17.17 47.4522 17.7049 47.2296 18.0997 46.8348C18.4945 46.4401 18.7171 45.9052 18.719 45.3469V40.9719C18.719 40.4123 18.4972 39.8756 18.1022 39.4792C17.7073 39.0829 17.1713 38.8592 16.6117 38.8573H9.00651C8.44569 38.8573 7.90784 39.0801 7.51127 39.4766C7.11471 39.8732 6.89193 40.4111 6.89193 40.9719V45.3469C6.89386 45.9064 7.11749 46.4424 7.51385 46.8374C7.9102 47.2324 8.44695 47.4542 9.00651 47.4542ZM17.2607 40.9792V45.3542C17.2607 45.5263 17.1923 45.6913 17.0706 45.813C16.9489 45.9348 16.7838 46.0031 16.6117 46.0031H13.5346V40.3229H16.6117C16.7845 40.3248 16.9496 40.3948 17.0711 40.5177C17.1925 40.6405 17.2607 40.8064 17.2607 40.9792ZM8.35026 40.9792C8.35026 40.8051 8.4194 40.6382 8.54247 40.5151C8.66554 40.3921 8.83246 40.3229 9.00651 40.3229H12.0763V45.9958H9.00651C8.92068 45.9968 8.8355 45.9807 8.75593 45.9485C8.67635 45.9164 8.60394 45.8687 8.54291 45.8084C8.48187 45.748 8.43342 45.6761 8.40035 45.5969C8.36728 45.5177 8.35026 45.4327 8.35026 45.3469V40.9792ZM38.8367 28.2625H31.2315C30.672 28.2644 30.136 28.4881 29.741 28.8844C29.346 29.2808 29.1242 29.8175 29.1242 30.3771V34.7521C29.1261 35.3104 29.3488 35.8453 29.7436 36.24C30.1383 36.6348 30.6732 36.8575 31.2315 36.8594H38.8367C39.3963 36.8594 39.933 36.6376 40.3294 36.2426C40.7257 35.8476 40.9494 35.3116 40.9513 34.7521V30.3771C40.9513 29.8163 40.7285 29.2784 40.332 28.8818C39.9354 28.4853 39.3975 28.2625 38.8367 28.2625ZM30.5826 34.7448V30.3698C30.5825 30.197 30.6507 30.0312 30.7722 29.9083C30.8937 29.7854 31.0587 29.7155 31.2315 29.7135H34.3086V35.3865H31.2315C31.0607 35.3865 30.8967 35.3191 30.7752 35.199C30.6537 35.0788 30.5845 34.9156 30.5826 34.7448ZM39.493 34.7448C39.493 34.8306 39.4759 34.9156 39.4429 34.9948C39.4098 35.074 39.3614 35.1459 39.3003 35.2063C39.2393 35.2666 39.1669 35.3143 39.0873 35.3465C39.0077 35.3786 38.9226 35.3947 38.8367 35.3937H35.7669V29.7208H38.8367C39.0108 29.7208 39.1777 29.79 39.3008 29.913C39.4238 30.0361 39.493 30.203 39.493 30.3771V34.7448ZM26.0471 25.9948H44.0211C44.5807 25.9948 45.1174 25.773 45.5138 25.378C45.9101 24.983 46.1337 24.4471 46.1357 23.8875V19.5125C46.1357 19.2352 46.0809 18.9605 45.9746 18.7044C45.8682 18.4482 45.7123 18.2156 45.5159 18.0198C45.3194 17.8241 45.0863 17.669 44.8298 17.5635C44.5732 17.458 44.2984 17.4042 44.0211 17.4052H26.0471C25.4882 17.4052 24.9522 17.6272 24.5571 18.0224C24.1619 18.4176 23.9398 18.9536 23.9398 19.5125V23.8875C23.9418 24.4458 24.1644 24.9807 24.5592 25.3755C24.954 25.7702 25.4888 25.9929 26.0471 25.9948ZM35.7669 18.8708H39.493V24.5365H35.7669V18.8708ZM44.6773 19.5198V23.8948C44.6773 23.9806 44.6603 24.0656 44.6273 24.1448C44.5942 24.224 44.5457 24.2959 44.4847 24.3563C44.4237 24.4166 44.3513 24.4643 44.2717 24.4965C44.1921 24.5286 44.1069 24.5447 44.0211 24.5437H40.9513V18.8708H44.0211C44.1069 18.8699 44.1921 18.8859 44.2717 18.9181C44.3513 18.9503 44.4237 18.998 44.4847 19.0583C44.5457 19.1187 44.5942 19.1905 44.6273 19.2697C44.6603 19.349 44.6773 19.434 44.6773 19.5198ZM34.3086 24.5365H30.5826V18.8708H34.3086V24.5365ZM25.3982 19.5198C25.3982 19.3477 25.4665 19.1826 25.5883 19.0609C25.71 18.9392 25.875 18.8708 26.0471 18.8708H29.1242V24.5365H26.0471C25.875 24.5365 25.71 24.4681 25.5883 24.3464C25.4665 24.2247 25.3982 24.0596 25.3982 23.8875V19.5198ZM53.1867 34.6646H60.7919C61.3515 34.6646 61.8882 34.4428 62.2846 34.0478C62.681 33.6528 62.9046 33.1168 62.9065 32.5573V28.1823C62.9065 27.9046 62.8518 27.6296 62.7455 27.3731C62.6393 27.1165 62.4835 26.8834 62.2872 26.6871C62.0908 26.4907 61.8577 26.3349 61.6011 26.2287C61.3446 26.1224 61.0696 26.0677 60.7919 26.0677H53.1867C52.6272 26.0696 52.0912 26.2933 51.6962 26.6896C51.3012 27.086 51.0794 27.6227 51.0794 28.1823V32.5573C51.0814 33.1156 51.304 33.6505 51.6988 34.0452C52.0935 34.44 52.6284 34.6627 53.1867 34.6646ZM61.4482 28.1896V32.5646C61.4482 32.6504 61.4312 32.7354 61.3981 32.8146C61.365 32.8938 61.3166 32.9657 61.2555 33.0261C61.1945 33.0864 61.1221 33.1341 61.0425 33.1663C60.9629 33.1984 60.8778 33.2145 60.7919 33.2135H57.7221V27.5333H60.7919C60.966 27.5333 61.1329 27.6025 61.256 27.7255C61.379 27.8486 61.4482 28.0155 61.4482 28.1896ZM52.5378 28.1896C52.5378 28.0168 52.6059 27.851 52.7274 27.7281C52.8489 27.6052 53.0139 27.5353 53.1867 27.5333H56.2638V33.2062H53.1867C53.0146 33.2062 52.8495 33.1379 52.7278 33.0162C52.6061 32.8945 52.5378 32.7294 52.5378 32.5573V28.1896ZM53.1867 47.4542H60.7919C61.3515 47.4542 61.8882 47.2324 62.2846 46.8374C62.681 46.4424 62.9046 45.9064 62.9065 45.3469V40.9719C62.9065 40.6942 62.8518 40.4192 62.7455 40.1627C62.6393 39.9061 62.4835 39.673 62.2872 39.4766C62.0908 39.2803 61.8577 39.1245 61.6011 39.0183C61.3446 38.912 61.0696 38.8573 60.7919 38.8573H53.1867C52.6272 38.8592 52.0912 39.0829 51.6962 39.4792C51.3012 39.8756 51.0794 40.4123 51.0794 40.9719V45.3469C51.0814 45.9052 51.304 46.4401 51.6988 46.8348C52.0935 47.2296 52.6284 47.4522 53.1867 47.4542ZM61.4482 40.9792V45.3542C61.4482 45.44 61.4312 45.525 61.3981 45.6042C61.365 45.6834 61.3166 45.7553 61.2555 45.8156C61.1945 45.876 61.1221 45.9237 61.0425 45.9558C60.9629 45.988 60.8778 46.0041 60.7919 46.0031H57.7221V40.3229H60.7919C60.966 40.3229 61.1329 40.3921 61.256 40.5151C61.379 40.6382 61.4482 40.8051 61.4482 40.9792ZM52.5378 40.9792C52.5378 40.8064 52.6059 40.6405 52.7274 40.5177C52.8489 40.3948 53.0139 40.3248 53.1867 40.3229H56.2638V45.9958H53.1867C53.0146 45.9958 52.8495 45.9275 52.7278 45.8058C52.6061 45.6841 52.5378 45.519 52.5378 45.3469V40.9792Z" fill="#742A2C"/>
</svg>
