<svg width="70" height="70" viewBox="0 0 70 70" fill="none" xmlns="http://www.w3.org/2000/svg">
<path fill-rule="evenodd" clip-rule="evenodd" d="M65.6417 66.0805C65.3451 66.1345 4.56941 66.1345 4.27276 66.0805C3.97611 66.0266 3.77922 65.742 3.8331 65.4455L12.5633 17.429V4.36959C12.5633 4.06796 12.8079 3.82349 13.1095 3.82349H56.8049C57.1066 3.82349 57.3511 4.06796 57.3511 4.36959V17.429L66.0813 65.4455C66.1353 65.742 65.9383 66.0266 65.6417 66.0805ZM13.6558 16.9321H56.2588V4.91583H13.6558V16.9321ZM48.0659 22.3939V18.0244H46.9734V22.3939H48.0659ZM23.4872 22.3939V18.0244H22.3948V22.3939H23.4872ZM14.7254 16.3853C14.6054 16.3899 14.4832 16.3552 14.3794 16.2781C14.173 16.1249 14.1058 15.8534 14.2019 15.6267V6.00817C14.2019 5.70654 14.4465 5.46206 14.7481 5.46206H55.1663C55.4681 5.46206 55.7125 5.70654 55.7125 6.00817V15.8396C55.7125 16.1414 55.4681 16.3859 55.1663 16.3859H14.7481C14.7405 16.3859 14.7329 16.3857 14.7254 16.3853ZM15.791 15.2935H18.5986L25.089 6.5544H22.2814L15.791 15.2935ZM19.9593 15.2935H22.7669L29.2574 6.5544H26.4498L19.9593 15.2935ZM24.1276 15.2935H26.9352L33.4257 6.5544H30.6181L24.1276 15.2935ZM28.2959 15.2935H31.1035L37.5939 6.5544H34.7863L28.2959 15.2935ZM32.4643 15.2935H35.2719L41.7622 6.5544H38.9546L32.4643 15.2935ZM36.6326 15.2935H39.4402L45.9306 6.5544H43.123L36.6326 15.2935ZM40.8008 15.2935H43.6084L50.0989 6.5544H47.2913L40.8008 15.2935ZM44.9691 15.2935H47.7767L54.2672 6.5544H51.4596L44.9691 15.2935ZM49.1375 15.2935H51.9451L54.6202 11.6917V7.91128L49.1375 15.2935ZM53.3058 15.2935H54.6202V13.5237L53.3058 15.2935ZM20.9207 6.5544H18.1131L15.2944 10.3499V14.1301L20.9207 6.5544ZM16.7524 6.5544H15.2944V8.51768L16.7524 6.5544ZM23.4092 42.1948L20.921 40.719L19.3513 41.7096C19.1653 41.8269 18.9271 41.8213 18.7469 41.6953L15.2727 39.2672C15.0885 39.1385 15.002 38.9101 15.0546 38.6917L15.4923 36.872C15.5034 36.735 15.5661 36.6062 15.669 36.5124L17.1111 35.2001L15.9093 33.0369C15.8314 32.8969 15.8191 32.7298 15.8753 32.5799L16.6123 30.6145C16.611 30.5113 16.6389 30.4078 16.6963 30.3168L18.5636 27.3537C18.7008 27.136 18.9713 27.0436 19.213 27.1318L21.8563 28.0966L27.6168 26.1636C27.7842 26.1075 27.9649 26.1364 28.1046 26.2345C28.1888 26.2738 28.2639 26.335 28.3208 26.4166L29.3907 27.95C29.5112 28.1228 29.5217 28.3493 29.4177 28.5323L27.5436 31.832L28.5115 32.5093C28.7585 32.6821 28.8188 33.0223 28.6464 33.2694L27.3016 35.1969L28.9887 36.6167C29.1561 36.7574 29.2233 36.9846 29.1593 37.194C29.0955 37.4032 28.9129 37.5542 28.6954 37.5775L25.9229 37.8759L24.3 42.0046C24.2245 42.1966 24.0471 42.3298 23.8416 42.3487C23.6797 42.3635 23.5222 42.3055 23.4092 42.1948ZM16.3808 37.849L16.2037 38.5852L19.0753 40.5921L20.6206 39.6168C20.7941 39.5074 21.0143 39.5043 21.1907 39.609L22.1235 40.1621C21.6202 39.355 21.1501 38.6013 21.1501 38.6013L19.3997 39.6569C19.2106 39.771 18.9712 39.7598 18.7934 39.6286L16.3808 37.849ZM17.9411 34.4448L18.6711 33.7803L17.327 31.8198L16.9868 32.7271L17.9411 34.4448ZM27.8482 27.6484C27.195 28.7394 25.9928 30.7471 25.9928 30.7471L26.6444 31.2031L28.2976 28.2925L27.8482 27.6484ZM18.8117 35.1296C17.9783 35.8879 16.8967 36.8721 16.8967 36.8721L17.4959 37.3142L18.787 36.0823L18.8117 35.1296ZM25.9205 28.7415L26.5623 27.6698L22.5302 29.0226L22.9162 29.6659L25.9205 28.7415ZM42.3309 45.5852C42.2584 45.4714 42.2297 45.3334 42.2535 45.1974C42.285 45.0178 42.404 44.8658 42.5708 44.7921L44.5218 43.9303L45.9583 41.5247C46.102 41.284 46.4045 41.1912 46.6585 41.3099L49.3427 42.5642L52.2568 42.0791C52.5028 41.9787 52.7921 42.0705 52.9321 42.3057L54.3862 44.7475C54.4635 44.8774 54.4836 45.0336 54.4417 45.1788L53.7351 47.6211C53.7221 47.6659 53.7039 47.7077 53.6812 47.7463L53.1781 49.5352L56.6885 54.009C56.7511 54.089 56.7903 54.1849 56.8016 54.286L57.0688 56.6938C57.088 56.8684 57.0222 57.0416 56.8919 57.1594C56.7616 57.2771 56.5826 57.325 56.4108 57.288L54.4774 56.8714L52.3169 62.9311C52.2461 63.1293 52.0691 63.267 51.8645 63.2903C51.7156 63.3207 51.5547 63.2893 51.4244 63.1902L49.56 61.7727L46.9583 61.7346C46.8305 61.7328 46.7074 61.6861 46.6104 61.6027L43.4032 58.8469C43.2609 58.7247 43.1913 58.5383 43.2187 58.353L44.4775 50.438L42.4908 48.4512C42.3884 48.3489 42.3309 48.2099 42.3309 48.0651V45.5852ZM52.5901 43.8664C52.3166 44.6867 51.9888 45.6702 51.9888 45.6702L52.9613 46.365L53.3264 45.1029L52.5901 43.8664ZM50.8368 61.3711L50.3858 59.8082H47.5197C47.3819 59.8082 47.2492 59.7561 47.1482 59.6624L44.493 57.1994L44.3433 58.2145L47.1723 60.6453L49.7556 60.683C49.8723 60.6847 49.9853 60.7238 50.0782 60.7944L50.8368 61.3711ZM45.0908 53.4514L47.1514 50.2175L43.4232 46.6517V47.8388L45.448 49.8636C45.5724 49.988 45.6293 50.1645 45.6008 50.3381L45.0908 53.4514ZM51.3461 44.144L51.6304 43.2908L49.3547 43.6695C49.2458 43.6877 49.1338 43.6724 49.0338 43.6256L46.6432 42.5084L45.3706 44.6396C45.3126 44.7368 45.2259 44.8136 45.1223 44.8592L43.7592 45.4614L44.7942 46.4515L46.8383 44.1519C46.9834 43.9887 47.2119 43.9276 47.4191 43.9965L49.0578 44.5421L51.3461 44.144ZM7.93282 64.0238C7.87894 64.3204 7.59435 64.5174 7.2977 64.4634C7.00119 64.4095 6.80416 64.1249 6.85804 63.8284L14.9059 19.5654C14.9598 19.2687 15.2444 19.0717 15.5409 19.1257C15.8376 19.1796 16.0346 19.4642 15.9806 19.7607L7.93282 64.0238ZM53.9338 19.7607C53.8798 19.4642 54.0768 19.1796 54.3735 19.1257C54.67 19.0717 54.9546 19.2687 55.0086 19.5654L63.0728 63.9186C63.1268 64.2153 62.9297 64.4999 62.6331 64.5537C62.3366 64.6077 62.052 64.4107 61.9981 64.1141L53.9338 19.7607ZM35.8159 38.2336H34.0985L33.3612 48.0651H36.5532L35.8159 38.2336ZM35.7454 31.6889L35.2598 22.9402H34.6546L34.1691 31.6889H35.7454ZM36.6478 55.1655H33.2668L32.2836 64.9969H37.6309L36.6478 55.1655Z" fill="#742A2C"/>
</svg>
