<svg width="70" height="55" viewBox="0 0 70 55" fill="none" xmlns="http://www.w3.org/2000/svg">
<path d="M51.0688 18.46H53.4034L54.9198 21.561H52.3619L51.0688 18.46ZM52.8344 17.2963L51.5734 14.7172H49.5082L50.5836 17.2963H52.8345H52.8344ZM27.8213 25.8258H30.531L31.8241 22.7248H29.3402L27.8213 25.8258ZM61.7907 47.1962L48.2472 14.7172H36.4242L22.8807 47.1962H61.7908H61.7907ZM25.7324 30.0905H28.7526L30.0457 26.9895H27.2514L25.7324 30.0905ZM33.6025 18.46H31.4291L29.9103 21.561H32.3094L33.6025 18.46ZM57.697 34.3553H61.1759L59.6597 31.2544H56.4039L57.697 34.3553ZM54.1403 25.8258H57.0051L55.4889 22.7248H52.8472L54.1403 25.8258ZM23.6434 34.3553H26.9743L28.2673 31.2544H25.1623L23.6434 34.3553ZM61.2537 42.8849H65.3468L63.8305 39.7839H59.9605L61.2536 42.8849H61.2537ZM63.0516 47.1962H67.455L65.9159 44.0485H61.739L63.0516 47.1962ZM55.9186 30.0905H59.0907L57.5744 26.9895H54.6255L55.9186 30.0905ZM59.4754 38.62H63.2614L61.7451 35.519H58.1823L59.4754 38.62ZM15.1429 54.9552H20.6553L21.3603 48.36H16.8699L15.1429 54.9552ZM2.68742 48.36L0 54.9552H13.9398L15.6669 48.36H2.68742ZM31.9667 14.7174H27.6812L27.9384 15.3241C28.1827 15.9 28.3065 16.4979 28.3065 17.1013C28.3065 19.3148 26.6376 21.3421 23.9512 22.392L23.5778 22.5379L23.6916 22.9222C23.8157 23.3417 23.8787 23.7691 23.8787 24.1927C23.8787 26.4063 22.2098 28.4335 19.5234 29.4832L19.15 29.6291L19.2638 30.0136C19.3878 30.433 19.4508 30.8604 19.4508 31.284C19.4508 32.9272 18.562 34.458 16.948 35.5944C15.6334 36.52 13.9736 37.091 12.1482 37.2459L11.7486 37.2797V44.8396C11.7486 45.1605 11.4876 45.4215 11.1667 45.4215C10.8458 45.4215 10.5849 45.1605 10.5849 44.8396V37.2626H10.1057L3.39193 47.1964H16.0579L31.9668 14.7174H31.9667ZM18.8954 44.0487L17.3536 47.1964H21.6196L22.9322 44.0487H18.8954ZM22.5306 48.36L21.8256 54.9552H63.5881L62.192 48.36H22.5306ZM67.9582 48.36H63.3817L64.7778 54.9552H70L67.9583 48.36H67.9582ZM21.5545 38.62H25.1959L26.489 35.519H23.0733L21.5545 38.62ZM35.1632 14.7174H33.2625L31.9992 17.2964H34.0878L35.1632 14.7174ZM19.4655 42.8849H23.4175L24.7106 39.7839H20.9844L19.4654 42.8849H19.4655ZM20.342 12.1679L20.3402 12.4299L20.4982 12.5619C21.8683 13.7071 22.6862 15.6752 22.6862 17.8267C22.6862 18.6887 22.5549 19.5259 22.2956 20.3148L22.2137 20.5641L22.3956 20.7534C22.5411 20.9047 22.6836 21.0706 22.8198 21.2467L23.0135 21.4974L23.312 21.3908C25.6391 20.5587 27.1427 18.8752 27.1427 17.1015C27.1427 15.7037 26.2866 14.6861 25.5683 14.0788C25.3729 13.9135 25.3085 13.6343 25.4115 13.4C25.7639 12.599 25.9503 11.6776 25.9503 10.7354C25.9503 8.76342 25.1258 6.95144 23.8497 6.11892C23.6728 6.00356 23.5721 5.80077 23.5873 5.59013C23.5996 5.41542 23.606 5.24275 23.606 5.07677C23.606 2.32491 21.965 0 20.0224 0C17.5091 0 16.0788 2.75826 15.7762 5.49179L15.7303 5.90784L16.144 5.97126C18.5373 6.3377 20.342 9.00185 20.342 12.1683V12.1679ZM11.1667 36.1251C15.0264 36.1251 18.2869 33.9081 18.2869 31.284C18.2869 29.8863 17.4308 28.8686 16.7126 28.2612C16.5171 28.096 16.4527 27.817 16.5557 27.5828C16.9082 26.7817 17.0945 25.8603 17.0945 24.9182C17.0945 22.9462 16.27 21.1341 14.9939 20.3017C14.8169 20.1863 14.7164 19.9835 14.7315 19.7729C14.7438 19.5996 14.7501 19.427 14.7501 19.2595C14.7501 16.5077 13.1091 14.1828 11.1666 14.1828C9.22412 14.1828 7.58307 16.5077 7.58307 19.2595C7.58307 19.4582 7.59195 19.6577 7.60999 19.8691C7.6273 20.0716 7.53565 20.2713 7.37069 20.3903C6.17201 21.2552 5.39767 23.0326 5.39767 24.9182C5.39767 25.8237 5.57122 26.7149 5.89955 27.4953C5.99948 27.733 5.92922 28.0119 5.72847 28.1738C4.6437 29.049 4.0464 30.1534 4.0464 31.2841C4.0464 33.9082 7.30712 36.1251 11.1667 36.1251ZM15.9142 19.2592L15.9124 19.5211L16.0704 19.6532C17.4404 20.7982 18.2584 22.7664 18.2584 24.9179C18.2584 25.7798 18.1271 26.617 17.8678 27.406L17.7861 27.6552L17.9678 27.8445C18.1141 27.9968 18.2567 28.1628 18.3918 28.3378L18.5857 28.5887L18.8842 28.4821C21.2113 27.6498 22.7149 25.9662 22.7149 24.1927C22.7149 22.7948 21.8588 21.7773 21.1405 21.17C20.9451 21.0047 20.8805 20.7256 20.9836 20.4912C21.3361 19.6903 21.5225 18.769 21.5225 17.8267C21.5225 15.8547 20.6979 14.0425 19.4219 13.2102C19.2448 13.0947 19.1443 12.8919 19.1595 12.6811C19.1718 12.5087 19.1782 12.336 19.1782 12.168C19.1782 9.41615 17.5372 7.09124 15.5947 7.09124C13.8403 7.09124 11.6884 9.92049 11.4081 12.5954L11.3654 13.0032L11.7697 13.0712C14.1324 13.4691 15.9143 16.1295 15.9143 19.2594L15.9142 19.2592Z" fill="#742A2C"/>
</svg>
