<svg width="70" height="70" viewBox="0 0 70 70" fill="none" xmlns="http://www.w3.org/2000/svg">
<g clip-path="url(#clip0_254_201)">
<path d="M70.0009 45.1337V24.8662L59.8672 35L70.0009 45.1337Z" fill="#742A2C"/>
<path d="M56.9658 37.9004L48.8828 45.9828L69.9995 67.0995V50.9341L56.9658 37.9004Z" fill="#742A2C"/>
<path d="M67.9501 21.1166L70.0009 19.0658V2.90039L59.8672 13.0336L67.9501 21.1166Z" fill="#742A2C"/>
<path d="M37.8984 34.9999L56.9643 15.9341L65.0467 24.017L45.9809 43.0829L37.8984 34.9999Z" fill="#742A2C"/>
<path d="M35.0009 59.8662L24.8672 70H45.1347L35.0009 59.8662Z" fill="#742A2C"/>
<path d="M56.9658 59.8662L48.8828 67.9492L50.9336 70H67.099L56.9658 59.8662Z" fill="#742A2C"/>
<path d="M26.918 45.9829L35.0009 37.8999L54.0668 56.9658L45.9838 65.0487L26.918 45.9829Z" fill="#742A2C"/>
<path d="M24.019 48.8833L2.90234 69.9999H19.0677L32.1014 56.9663L24.019 48.8833Z" fill="#742A2C"/>
<path d="M4.94922 45.9828L24.0151 26.917L32.098 35L13.0322 54.0658L4.94922 45.9828Z" fill="#742A2C"/>
<path d="M2.05078 48.8833L0 50.9341V67.0995L10.1337 56.9663L2.05078 48.8833Z" fill="#742A2C"/>
<path d="M0 24.8662V45.1337L10.1337 35L0 24.8662Z" fill="#742A2C"/>
<path d="M13.0337 32.0995L21.1166 24.017L0 2.90039V19.0658L13.0337 32.0995Z" fill="#742A2C"/>
<path d="M23.1693 0H2.90234L13.0356 10.1337L23.1693 0Z" fill="#742A2C"/>
<path d="M45.9848 21.1166L67.1014 0H50.936L37.9023 13.0337L45.9848 21.1166Z" fill="#742A2C"/>
<path d="M35.0009 10.1337L45.1347 0H28.9688L26.918 2.05078L35.0009 10.1337Z" fill="#742A2C"/>
<path d="M15.9336 13.0341L24.0166 4.95117L43.0824 24.017L34.9995 32.0995L15.9336 13.0341Z" fill="#742A2C"/>
</g>
<defs>
<clipPath id="clip0_254_201">
<rect width="70" height="70" fill="white"/>
</clipPath>
</defs>
</svg>
