<svg width="70" height="71" viewBox="0 0 70 71" fill="none" xmlns="http://www.w3.org/2000/svg">
<g clip-path="url(#clip0_254_157)">
<path d="M69.0434 13.1991L70 12.587V0H67.9492C28.1641 0 0 32.5879 0 68.9199V71H70V67.5654L69.0434 66.9533C59.8829 61.0918 54.4141 51.0443 54.4141 40.0762C54.4141 29.1081 59.8829 19.0606 69.0434 13.1991ZM28.095 63.1057C27.4646 60.2916 27.0867 57.3932 26.9717 54.4911L31.0702 54.3243C31.175 56.9729 31.5197 59.6173 32.0946 62.1839L28.095 63.1057ZM31.4631 46.4032L27.4024 45.8169C27.805 42.9477 28.4721 40.1034 29.3852 37.3633L33.2709 38.6951C32.4384 41.1936 31.8302 43.7869 31.4631 46.4032ZM36.4436 31.4545L32.8646 29.4224C34.2569 26.8998 35.8887 24.4908 37.7146 22.2625L40.8689 24.9216C39.2026 26.9549 37.7139 29.1528 36.4436 31.4545ZM46.3918 19.3105L43.7652 16.1153C45.9595 14.2596 48.3321 12.6004 50.8173 11.184L52.8266 14.8107C50.5594 16.1031 48.3945 17.617 46.3918 19.3105ZM58.6415 7.64165C61.3415 6.71116 64.1447 6.03001 66.9735 5.6169L67.5577 9.73463C64.9783 10.1111 62.4224 10.7322 59.9609 11.5806L58.6415 7.64165Z" fill="#742A2C"/>
</g>
<defs>
<clipPath id="clip0_254_157">
<rect width="70" height="71" fill="white"/>
</clipPath>
</defs>
</svg>
