<svg width="70" height="70" viewBox="0 0 70 70" fill="none" xmlns="http://www.w3.org/2000/svg">
<g clip-path="url(#clip0_254_171)">
<path fill-rule="evenodd" clip-rule="evenodd" d="M31.2478 61.3885V50.9726H28.0492V61.3885H31.2478ZM66.6784 6.9714H65.1611C65.1611 7.99659 65.4072 9.6779 63.9719 9.6779C62.4956 9.6779 62.7827 7.99659 62.7827 6.9714C61.7575 6.9714 60.0351 7.21744 60.0351 5.78218C60.0351 4.3059 61.7575 4.55195 62.7827 4.55195C62.7827 3.52676 62.4956 1.84545 63.9719 1.84545C65.4072 1.84545 65.1611 3.52676 65.1611 4.55195C66.1863 4.55195 67.8676 4.3059 67.8676 5.78218C67.8676 6.4383 67.3345 6.9714 66.6784 6.9714ZM8.73462 6.9714H7.21734C7.21734 7.99659 7.50439 9.6779 6.02812 9.6779C4.55185 9.6779 4.8389 7.99659 4.8389 6.9714C3.81371 6.9714 2.1324 7.21744 2.1324 5.78218C2.1324 4.3059 3.81371 4.55195 4.8389 4.55195C4.8389 3.52676 4.55185 1.84545 6.02812 1.84545C7.50439 1.84545 7.21734 3.52676 7.21734 4.55195C8.24253 4.55195 9.92384 4.3059 9.92384 5.78218C9.92384 6.4383 9.39074 6.9714 8.73462 6.9714ZM55.0322 36.1278H53.5149C53.5149 37.153 53.761 38.8343 52.3257 38.8343C50.8494 38.8343 51.0955 37.153 51.0955 36.1278C50.0703 36.1278 48.389 36.4149 48.389 34.9386C48.389 33.5033 50.0703 33.7494 51.0955 33.7494C51.0955 32.7242 50.8494 31.0429 52.3257 31.0429C53.761 31.0429 53.5149 32.7242 53.5149 33.7494C54.5401 33.7494 56.2214 33.5033 56.2214 34.9386C56.2214 35.5947 55.6883 36.1278 55.0322 36.1278ZM20.3808 36.1278H18.8635C18.8635 37.153 19.1506 38.8343 17.6743 38.8343C16.198 38.8343 16.4851 37.153 16.4851 36.1278C15.4599 36.1278 13.7786 36.4149 13.7786 34.9386C13.7786 33.5033 15.4599 33.7494 16.4851 33.7494C16.4851 32.7242 16.198 31.0429 17.6743 31.0429C19.1506 31.0429 18.8635 32.7242 18.8635 33.7494C19.8887 33.7494 21.57 33.5033 21.57 34.9386C21.57 35.5947 21.0369 36.1278 20.3808 36.1278ZM25.6298 50.9726C24.4815 50.9726 22.7182 51.2596 22.7182 49.7834V44.3703C22.7182 43.7142 23.2513 43.1811 23.9074 43.1811H31.2478V29.9357L10.99 21.4471H1.18922C-0.0410076 21.4471 -0.451084 19.8068 0.615114 19.1917L34.4054 0.164133C34.7745 -0.0819123 35.2255 -0.0409047 35.6356 0.164133L69.3849 19.1917C70.4511 19.8068 70 21.4471 68.7698 21.4471H58.969L38.7112 29.9357V43.1811H46.0926C46.7487 43.1811 47.2818 43.7142 47.2818 44.3703V49.7834C47.2818 51.2596 45.5185 50.9726 44.3292 50.9726V61.3885H52.5718V56.7546C51.6286 56.7546 49.9883 57.0007 49.9883 55.5654V48.6761C49.9883 48.02 50.5214 47.4869 51.1775 47.4869H60.2812L63.3978 39.4084C63.6028 38.9573 64.0539 38.6293 64.546 38.6293H68.7698C69.6309 38.6293 70.205 39.4904 69.918 40.2696L66.5554 48.9222V55.5654C66.5554 57.0007 64.9561 56.7546 63.9719 56.7546V61.3885H68.7698C69.4669 61.3885 70 61.9216 70 62.5777V68.7699C70 69.467 69.4669 70.0001 68.7698 70.0001H1.18922C0.533099 70.0001 0 69.467 0 68.7699V62.5777C0 61.9216 0.533099 61.3885 1.18922 61.3885H5.98711V56.7546C5.04394 56.7546 3.40363 57.0007 3.40363 55.5654V48.9222L0.0820152 40.2696C-0.205038 39.4904 0.369069 38.6293 1.18922 38.6293H5.45401C5.9461 38.6293 6.39719 38.9573 6.56122 39.4084L9.6778 47.4869H18.7815C19.4376 47.4869 20.0117 48.02 20.0117 48.6761V55.5654C20.0117 57.0007 18.3714 56.7546 17.3872 56.7546V61.3885H25.6298V50.9726ZM41.9508 50.9726H38.7112V61.3885H41.9508V50.9726ZM54.9912 61.3885H61.5934V56.7546H54.9912V61.3885ZM15.0088 56.7546H8.40656V61.3885H15.0088V56.7546ZM11.1951 19.0686H13.9016L26.655 7.25845L5.74107 19.0686H11.1951ZM17.2232 21.4471L26.983 25.5478L22.7182 21.4471H17.2232ZM26.2039 21.4471L31.2478 26.327V21.4471H26.2039ZM42.976 25.5478L52.7768 21.4471H47.2408L42.976 25.5478ZM58.7229 19.0686H64.2179L43.3451 7.25845L56.0574 19.0686H58.7229ZM38.7112 26.327L43.7961 21.4471H38.7112V26.327ZM25.5888 19.0686L31.4528 6.11024L17.4282 19.0686H25.5888ZM38.5472 6.11024L44.4112 19.0686H52.5308L38.5472 6.11024ZM41.7868 19.0686L34.9795 4.10086L28.2132 19.0686H41.7868Z" fill="#742A2C"/>
</g>
<defs>
<clipPath id="clip0_254_171">
<rect width="70" height="70" fill="white"/>
</clipPath>
</defs>
</svg>
