<svg width="70" height="70" viewBox="0 0 70 70" fill="none" xmlns="http://www.w3.org/2000/svg">
<path d="M24.2773 32.5836C24.2773 33.4003 24.9394 34.0623 25.756 34.0623H34.4529H44.0437C44.8604 34.0623 45.5224 33.4003 45.5224 32.5836V26.5536C45.5224 25.737 44.8604 25.075 44.0437 25.075H25.756C24.9394 25.075 24.2773 25.737 24.2773 26.5536V32.5836Z" fill="#742A2C"/>
<path d="M3.22869 44.9368H9.98813C10.8048 44.9368 11.4668 44.2748 11.4668 43.4581V37.4282C11.4668 36.6115 10.8048 35.9495 9.98813 35.9495H3.22869C2.41203 35.9495 1.75 36.6115 1.75 37.4282V43.4581C1.75 44.2748 2.41203 44.9368 3.22869 44.9368Z" fill="#742A2C"/>
<path d="M3.22869 55.8231H21.7048C22.5215 55.8231 23.1835 55.1611 23.1835 54.3444V48.3261C23.1835 47.5094 22.5215 46.8474 21.7048 46.8474H12.055H11.4785H3.22869C2.41203 46.8474 1.75 47.5094 1.75 48.3261V54.3444C1.75 55.1611 2.41203 55.8231 3.22869 55.8231Z" fill="#742A2C"/>
<path d="M3.22869 23.1641H9.98813C10.8048 23.1641 11.4668 22.5021 11.4668 21.6854V15.6554C11.4668 14.8388 10.8048 14.1768 9.98813 14.1768H3.22869C2.41203 14.1768 1.75 14.8388 1.75 15.6554V21.6854C1.75 22.5021 2.41203 23.1641 3.22869 23.1641Z" fill="#742A2C"/>
<path d="M12.6328 21.6854C12.6328 22.5021 13.2948 23.1641 14.1115 23.1641H23.5612H23.6906H32.5286C33.3453 23.1641 34.0073 22.5021 34.0073 21.6854V15.6554C34.0073 14.8388 33.3453 14.1768 32.5286 14.1768H14.1115C13.2948 14.1768 12.6328 14.8388 12.6328 15.6554V21.6854Z" fill="#742A2C"/>
<path d="M1.75 32.5836C1.75 33.4003 2.41203 34.0623 3.22869 34.0623H12.055H21.5047C22.3214 34.0623 22.9834 33.4003 22.9834 32.5836V26.5536C22.9834 25.737 22.3214 25.075 21.5047 25.075H3.22869C2.41203 25.075 1.75 25.737 1.75 26.5536V32.5836Z" fill="#742A2C"/>
<path d="M46.3714 44.9368H54.9271C55.7437 44.9368 56.4058 44.2748 56.4058 43.4581V37.4282C56.4058 36.6115 55.7437 35.9495 54.9271 35.9495H46.0891H36.5099C35.6933 35.9495 35.0312 36.6115 35.0312 37.4282V43.4581C35.0312 44.2748 35.6933 44.9368 36.5099 44.9368H46.2303H46.3714Z" fill="#742A2C"/>
<path d="M66.7708 46.8357H48.4123C47.5956 46.8357 46.9336 47.4977 46.9336 48.3144V54.3444C46.9336 55.1611 47.5956 55.8231 48.4123 55.8231H66.7708C67.5874 55.8231 68.2495 55.1611 68.2495 54.3444V48.3144C68.2495 47.4977 67.5874 46.8357 66.7708 46.8357Z" fill="#742A2C"/>
<path d="M44.1728 46.8357H25.8263C25.0097 46.8357 24.3477 47.4977 24.3477 48.3144V54.3444C24.3477 55.1611 25.0097 55.8231 25.8263 55.8231H44.1728C44.9895 55.8231 45.6515 55.1611 45.6515 54.3444V48.3144C45.6515 47.4977 44.9895 46.8357 44.1728 46.8357Z" fill="#742A2C"/>
<path d="M12.6328 43.4581C12.6328 44.2748 13.2948 44.9368 14.1115 44.9368H23.7613H32.3994C33.216 44.9368 33.8781 44.2748 33.8781 43.4581V37.4282C33.8781 36.6115 33.216 35.9495 32.3994 35.9495H23.6906H23.5612H14.1115C13.2948 35.9495 12.6328 36.6115 12.6328 37.4282V43.4581Z" fill="#742A2C"/>
</svg>
